# Blender 5.2.1 LTS
# www.blender.org
mtllib blender.mtl
o Cube
v 1.000000 1.000000 -1.000000
v 1.000000 -1.000000 -1.000000
v 1.000000 1.000000 1.000000
v 1.000000 -1.000000 1.000000
v -1.000000 1.000000 -1.000000
v -1.000000 -1.000000 -1.000000
v -1.000000 1.000000 1.000000
v -1.000000 -1.000000 1.000000
vn -0.0000 1.0000 -0.0000
vn -0.0000 -0.0000 1.0000
vn -1.0000 -0.0000 -0.0000
vn -0.0000 -1.0000 -0.0000
vn 1.0000 -0.0000 -0.0000
vn -0.0000 -0.0000 -1.0000
vt 0.625000 0.500000
vt 0.875000 0.500000
vt 0.875000 0.750000
vt 0.625000 0.750000
vt 0.375000 0.750000
vt 0.625000 1.000000
vt 0.375000 1.000000
vt 0.375000 0.000000
vt 0.625000 0.000000
vt 0.625000 0.250000
vt 0.375000 0.250000
vt 0.125000 0.500000
vt 0.375000 0.500000
vt 0.125000 0.750000
s 0
usemtl Material
f 1/1/1 5/2/1 7/3/1 3/4/1
f 4/5/2 3/4/2 7/6/2 8/7/2
f 8/8/3 7/9/3 5/10/3 6/11/3
f 6/12/4 2/13/4 4/5/4 8/14/4
f 2/13/5 1/1/5 3/4/5 4/5/5
f 6/11/6 5/10/6 1/1/6 2/13/6
o Suzanne
v 3.437500 0.164062 0.765625 0.6926 0.8889 0.4418
v 2.562500 0.164062 0.765625 0.6926 0.8889 0.4418
v 3.500000 0.093750 0.687500 0.7353 0.8475 0.3385
v 2.500000 0.093750 0.687500 0.7353 0.8475 0.3385
v 3.546875 0.054688 0.578125 0.7654 0.7846 0.2593
v 2.453125 0.054688 0.578125 0.7654 0.7846 0.2593
v 3.351562 -0.023438 0.617188 0.6276 0.8078 0.1658
v 2.648438 -0.023438 0.617188 0.6276 0.8078 0.1658
v 3.351562 0.031250 0.718750 0.6276 0.8643 0.1940
v 2.648438 0.031250 0.718750 0.6276 0.8643 0.1940
v 3.351562 0.132812 0.781250 0.6276 0.8968 0.3999
v 2.648438 0.132812 0.781250 0.6276 0.8968 0.3999
v 3.273438 0.164062 0.796875 0.5596 0.9047 0.4418
v 2.726562 0.164062 0.796875 0.5596 0.9047 0.4418
v 3.203125 0.093750 0.742188 0.4880 0.8767 0.3385
v 2.796875 0.093750 0.742188 0.4880 0.8767 0.3385
v 3.156250 0.054688 0.648438 0.4318 0.8257 0.2593
v 2.843750 0.054688 0.648438 0.4318 0.8257 0.2593
v 3.078125 0.242188 0.656250 0.3097 0.8301 0.5293
v 2.921875 0.242188 0.656250 0.3097 0.8301 0.5293
v 3.140625 0.242188 0.742188 0.4109 0.8767 0.5293
v 2.859375 0.242188 0.742188 0.4109 0.8767 0.5293
v 3.242188 0.242188 0.796875 0.5293 0.9047 0.5293
v 2.757812 0.242188 0.796875 0.5293 0.9047 0.5293
v 3.273438 0.328125 0.796875 0.5596 0.9047 0.6082
v 2.726562 0.328125 0.796875 0.5596 0.9047 0.6082
v 3.203125 0.390625 0.742188 0.4880 0.8767 0.6582
v 2.796875 0.390625 0.742188 0.4880 0.8767 0.6582
v 3.156250 0.437500 0.648438 0.4318 0.8257 0.6926
v 2.843750 0.437500 0.648438 0.4318 0.8257 0.6926
v 3.351562 0.515625 0.617188 0.6276 0.8078 0.7455
v 2.648438 0.515625 0.617188 0.6276 0.8078 0.7455
v 3.351562 0.453125 0.718750 0.6276 0.8643 0.7036
v 2.648438 0.453125 0.718750 0.6276 0.8643 0.7036
v 3.351562 0.359375 0.781250 0.6276 0.8968 0.6339
v 2.648438 0.359375 0.781250 0.6276 0.8968 0.6339
v 3.437500 0.328125 0.765625 0.6926 0.8889 0.6082
v 2.562500 0.328125 0.765625 0.6926 0.8889 0.6082
v 3.500000 0.390625 0.687500 0.7353 0.8475 0.6582
v 2.500000 0.390625 0.687500 0.7353 0.8475 0.6582
v 3.546875 0.437500 0.578125 0.7654 0.7846 0.6926
v 2.453125 0.437500 0.578125 0.7654 0.7846 0.6926
v 3.625000 0.242188 0.562500 0.8123 0.7751 0.5293
v 2.375000 0.242188 0.562500 0.8123 0.7751 0.5293
v 3.562500 0.242188 0.671875 0.7751 0.8389 0.5293
v 2.437500 0.242188 0.671875 0.7751 0.8389 0.5293
v 3.468750 0.242188 0.757812 0.7144 0.8848 0.5293
v 2.531250 0.242188 0.757812 0.7144 0.8848 0.5293
v 3.476562 0.242188 0.773438 0.7197 0.8929 0.5293
v 2.523438 0.242188 0.773438 0.7197 0.8929 0.5293
v 3.445312 0.335938 0.781250 0.6981 0.8968 0.6147
v 2.554688 0.335938 0.781250 0.6981 0.8968 0.6147
v 3.351562 0.375000 0.804688 0.6276 0.9086 0.6461
v 2.648438 0.375000 0.804688 0.6276 0.9086 0.6461
v 3.265625 0.335938 0.820312 0.5523 0.9164 0.6147
v 2.734375 0.335938 0.820312 0.5523 0.9164 0.6147
v 3.226562 0.242188 0.820312 0.5133 0.9164 0.5293
v 2.773438 0.242188 0.820312 0.5133 0.9164 0.5293
v 3.265625 0.156250 0.820312 0.5523 0.9164 0.4318
v 2.734375 0.156250 0.820312 0.5523 0.9164 0.4318
v 3.351562 0.242188 0.828125 0.6276 0.9202 0.5293
v 2.648438 0.242188 0.828125 0.6276 0.9202 0.5293
v 3.351562 0.117188 0.804688 0.6276 0.9086 0.3768
v 2.648438 0.117188 0.804688 0.6276 0.9086 0.3768
v 3.445312 0.156250 0.781250 0.6981 0.8968 0.4318
v 2.554688 0.156250 0.781250 0.6981 0.8968 0.4318
v 3.000000 0.429688 0.742188 0.0000 0.8767 0.6870
v 3.000000 0.351562 0.820312 0.0000 0.9164 0.6276
v 3.000000 -0.679688 0.734375 0.0000 0.8726 0.8432
v 3.000000 -0.320312 0.781250 0.0000 0.8968 0.6015
v 3.000000 -0.187500 0.796875 0.0000 0.9047 0.4702
v 3.000000 -0.773438 0.718750 0.0000 0.8643 0.8929
v 3.000000 0.406250 0.601562 0.0000 0.7986 0.6699
v 3.000000 0.570312 0.570312 0.0000 0.7799 0.7799
v 3.000000 0.898438 -0.546875 0.0000 0.7654 0.9539
v 3.000000 0.562500 -0.851562 0.0000 0.9316 0.7751
v 3.000000 0.070312 -0.828125 0.0000 0.9202 0.2940
v 3.000000 -0.382812 -0.351562 0.0000 0.6276 0.6522
v 3.203125 -0.187500 0.562500 0.4880 0.7751 0.4702
v 2.796875 -0.187500 0.562500 0.4880 0.7751 0.4702
v 3.312500 -0.437500 0.570312 0.5948 0.7799 0.6926
v 2.687500 -0.437500 0.570312 0.5948 0.7799 0.6926
v 3.351562 -0.695312 0.570312 0.6276 0.7799 0.8517
v 2.648438 -0.695312 0.570312 0.6276 0.7799 0.8517
v 3.367188 -0.890625 0.531250 0.6400 0.7556 0.9503
v 2.632812 -0.890625 0.531250 0.6400 0.7556 0.9503
v 3.328125 -0.945312 0.523438 0.6082 0.7506 0.9755
v 2.671875 -0.945312 0.523438 0.6082 0.7506 0.9755
v 3.179688 -0.968750 0.554688 0.4610 0.7703 0.9861
v 2.820312 -0.968750 0.554688 0.4610 0.7703 0.9861
v 3.000000 -0.984375 0.578125 0.0000 0.7846 0.9931
v 3.437500 -0.140625 0.531250 0.6926 0.7556 0.4109
v 2.562500 -0.140625 0.531250 0.6926 0.7556 0.4109
v 3.632812 -0.039062 0.539062 0.8168 0.7605 0.2182
v 2.367188 -0.039062 0.539062 0.8168 0.7605 0.2182
v 3.828125 0.148438 0.445312 0.9202 0.6981 0.4215
v 2.171875 0.148438 0.445312 0.9202 0.6981 0.4215
v 3.859375 0.429688 0.593750 0.9354 0.7940 0.6870
v 2.140625 0.429688 0.593750 0.9354 0.7940 0.6870
v 3.710938 0.484375 0.625000 0.8602 0.8123 0.7250
v 2.289062 0.484375 0.625000 0.8602 0.8123 0.7250
v 3.492188 0.601562 0.687500 0.7302 0.8475 0.7986
v 2.507812 0.601562 0.687500 0.7302 0.8475 0.7986
v 3.320312 0.757812 0.734375 0.6015 0.8726 0.8848
v 2.679688 0.757812 0.734375 0.6015 0.8726 0.8848
v 3.156250 0.718750 0.757812 0.4318 0.8848 0.8643
v 2.843750 0.718750 0.757812 0.4318 0.8848 0.8643
v 3.062500 0.492188 0.750000 0.2773 0.8808 0.7302
v 2.937500 0.492188 0.750000 0.2773 0.8808 0.7302
v 3.164062 0.414062 0.773438 0.4418 0.8929 0.6757
v 2.835938 0.414062 0.773438 0.4418 0.8929 0.6757
v 3.125000 0.304688 0.765625 0.3886 0.8889 0.5879
v 2.875000 0.304688 0.765625 0.3886 0.8889 0.5879
v 3.203125 0.093750 0.742188 0.4880 0.8767 0.3385
v 2.796875 0.093750 0.742188 0.4880 0.8767 0.3385
v 3.375000 0.015625 0.703125 0.6461 0.8560 0.1315
v 2.625000 0.015625 0.703125 0.6461 0.8560 0.1315
v 3.492188 0.062500 0.671875 0.7302 0.8389 0.2773
v 2.507812 0.062500 0.671875 0.7302 0.8389 0.2773
v 3.625000 0.187500 0.648438 0.8123 0.8257 0.4702
v 2.375000 0.187500 0.648438 0.8123 0.8257 0.4702
v 3.640625 0.296875 0.648438 0.8213 0.8257 0.5810
v 2.359375 0.296875 0.648438 0.8213 0.8257 0.5810
v 3.601562 0.375000 0.664062 0.7986 0.8345 0.6461
v 2.398438 0.375000 0.664062 0.7986 0.8345 0.6461
v 3.429688 0.437500 0.718750 0.6870 0.8643 0.6926
v 2.570312 0.437500 0.718750 0.6870 0.8643 0.6926
v 3.250000 0.468750 0.757812 0.5371 0.8848 0.7144
v 2.750000 0.468750 0.757812 0.5371 0.8848 0.7144
v 3.000000 -0.765625 0.734375 0.0000 0.8726 0.8889
v 3.109375 -0.718750 0.734375 0.3646 0.8726 0.8643
v 2.890625 -0.718750 0.734375 0.3646 0.8726 0.8643
v 3.117188 -0.835938 0.710938 0.3768 0.8602 0.9241
v 2.882812 -0.835938 0.710938 0.3768 0.8602 0.9241
v 3.062500 -0.882812 0.695312 0.2773 0.8517 0.9466
v 2.937500 -0.882812 0.695312 0.2773 0.8517 0.9466
v 3.000000 -0.890625 0.687500 0.0000 0.8475 0.9503
v 3.000000 -0.195312 0.750000 0.0000 0.8808 0.4792
v 3.000000 -0.140625 0.742188 0.0000 0.8767 0.4109
v 3.101562 -0.148438 0.742188 0.3518 0.8767 0.4215
v 2.898438 -0.148438 0.742188 0.3518 0.8767 0.4215
v 3.125000 -0.226562 0.750000 0.3886 0.8808 0.5133
v 2.875000 -0.226562 0.750000 0.3886 0.8808 0.5133
v 3.085938 -0.289062 0.742188 0.3244 0.8767 0.5740
v 2.914062 -0.289062 0.742188 0.3244 0.8767 0.5740
v 3.398438 -0.046875 0.671875 0.6641 0.8389 0.2398
v 2.601562 -0.046875 0.671875 0.6641 0.8389 0.2398
v 3.617188 0.054688 0.625000 0.8078 0.8123 0.2593
v 2.382812 0.054688 0.625000 0.8078 0.8123 0.2593
v 3.726562 0.203125 0.601562 0.8685 0.7986 0.4880
v 2.273438 0.203125 0.601562 0.8685 0.7986 0.4880
v 3.742188 0.375000 0.656250 0.8767 0.8301 0.6461
v 2.257812 0.375000 0.656250 0.8767 0.8301 0.6461
v 3.687500 0.414062 0.726562 0.8475 0.8685 0.6757
v 2.312500 0.414062 0.726562 0.8475 0.8685 0.6757
v 3.437500 0.546875 0.796875 0.6926 0.9047 0.7654
v 2.562500 0.546875 0.796875 0.6926 0.9047 0.7654
v 3.312500 0.640625 0.835938 0.5948 0.9241 0.8213
v 2.687500 0.640625 0.835938 0.5948 0.9241 0.8213
v 3.203125 0.617188 0.851562 0.4880 0.9316 0.8078
v 2.796875 0.617188 0.851562 0.4880 0.9316 0.8078
v 3.101562 0.429688 0.843750 0.3518 0.9279 0.6870
v 2.898438 0.429688 0.843750 0.3518 0.9279 0.6870
v 3.125000 -0.101562 0.812500 0.3886 0.9125 0.3518
v 2.875000 -0.101562 0.812500 0.3886 0.9125 0.3518
v 3.210938 -0.445312 0.710938 0.4966 0.8602 0.6981
v 2.789062 -0.445312 0.710938 0.4966 0.8602 0.6981
v 3.250000 -0.703125 0.687500 0.5371 0.8475 0.8560
v 2.750000 -0.703125 0.687500 0.5371 0.8475 0.8560
v 3.265625 -0.820312 0.664062 0.5523 0.8345 0.9164
v 2.734375 -0.820312 0.664062 0.5523 0.8345 0.9164
v 3.234375 -0.914062 0.632812 0.5214 0.8168 0.9612
v 2.765625 -0.914062 0.632812 0.5214 0.8168 0.9612
v 3.164062 -0.929688 0.632812 0.4418 0.8168 0.9684
v 2.835938 -0.929688 0.632812 0.4418 0.8168 0.9684
v 3.000000 -0.945312 0.640625 0.0000 0.8213 0.9755
v 3.000000 0.046875 0.726562 0.0000 0.8685 0.2398
v 3.000000 0.210938 0.765625 0.0000 0.8889 0.4966
v 3.328125 0.476562 0.742188 0.6082 0.8767 0.7197
v 2.671875 0.476562 0.742188 0.6082 0.8767 0.7197
v 3.164062 0.140625 0.750000 0.4418 0.8808 0.4109
v 2.835938 0.140625 0.750000 0.4418 0.8808 0.4109
v 3.132812 0.210938 0.757812 0.3999 0.8848 0.4966
v 2.867188 0.210938 0.757812 0.3999 0.8848 0.4966
v 3.117188 -0.687500 0.734375 0.3768 0.8726 0.8475
v 2.882812 -0.687500 0.734375 0.3768 0.8726 0.8475
v 3.078125 -0.445312 0.750000 0.3097 0.8808 0.6981
v 2.921875 -0.445312 0.750000 0.3097 0.8808 0.6981
v 3.000000 -0.445312 0.750000 0.0000 0.8808 0.6981
v 3.000000 -0.328125 0.742188 0.0000 0.8767 0.6082
v 3.093750 -0.273438 0.781250 0.3385 0.8968 0.5596
v 2.906250 -0.273438 0.781250 0.3385 0.8968 0.5596
v 3.132812 -0.226562 0.796875 0.3999 0.9047 0.5133
v 2.867188 -0.226562 0.796875 0.3999 0.9047 0.5133
v 3.109375 -0.132812 0.781250 0.3646 0.8968 0.3999
v 2.890625 -0.132812 0.781250 0.3646 0.8968 0.3999
v 3.039062 -0.125000 0.781250 0.2182 0.8968 0.3886
v 2.960938 -0.125000 0.781250 0.2182 0.8968 0.3886
v 3.000000 -0.203125 0.828125 0.0000 0.9202 0.4880
v 3.046875 -0.148438 0.812500 0.2398 0.9125 0.4215
v 2.953125 -0.148438 0.812500 0.2398 0.9125 0.4215
v 3.093750 -0.156250 0.812500 0.3385 0.9125 0.4318
v 2.906250 -0.156250 0.812500 0.3385 0.9125 0.4318
v 3.109375 -0.226562 0.828125 0.3646 0.9202 0.5133
v 2.890625 -0.226562 0.828125 0.3646 0.9202 0.5133
v 3.078125 -0.250000 0.804688 0.3097 0.9086 0.5371
v 2.921875 -0.250000 0.804688 0.3097 0.9086 0.5371
v 3.000000 -0.289062 0.804688 0.0000 0.9086 0.5740
v 3.257812 -0.312500 0.554688 0.5448 0.7703 0.5948
v 2.742188 -0.312500 0.554688 0.5448 0.7703 0.5948
v 3.164062 -0.242188 0.710938 0.4418 0.8602 0.5293
v 2.835938 -0.242188 0.710938 0.4418 0.8602 0.5293
v 3.179688 -0.312500 0.710938 0.4610 0.8602 0.5948
v 2.820312 -0.312500 0.710938 0.4610 0.8602 0.5948
v 3.234375 -0.250000 0.554688 0.5214 0.7703 0.5371
v 2.765625 -0.250000 0.554688 0.5214 0.7703 0.5371
v 3.000000 -0.875000 0.687500 0.0000 0.8475 0.9429
v 3.046875 -0.867188 0.687500 0.2398 0.8475 0.9391
v 2.953125 -0.867188 0.687500 0.2398 0.8475 0.9391
v 3.093750 -0.820312 0.710938 0.3385 0.8602 0.9164
v 2.906250 -0.820312 0.710938 0.3385 0.8602 0.9164
v 3.093750 -0.742188 0.726562 0.3385 0.8685 0.8767
v 2.906250 -0.742188 0.726562 0.3385 0.8685 0.8767
v 3.000000 -0.781250 0.656250 0.0000 0.8301 0.8968
v 3.093750 -0.750000 0.664062 0.3385 0.8345 0.8808
v 2.906250 -0.750000 0.664062 0.3385 0.8345 0.8808
v 3.093750 -0.812500 0.640625 0.3385 0.8213 0.9125
v 2.906250 -0.812500 0.640625 0.3385 0.8213 0.9125
v 3.046875 -0.851562 0.632812 0.2398 0.8168 0.9316
v 2.953125 -0.851562 0.632812 0.2398 0.8168 0.9316
v 3.000000 -0.859375 0.632812 0.0000 0.8168 0.9354
v 3.171875 0.218750 0.781250 0.4516 0.8968 0.5050
v 2.828125 0.218750 0.781250 0.4516 0.8968 0.5050
v 3.187500 0.156250 0.773438 0.4702 0.8929 0.4318
v 2.812500 0.156250 0.773438 0.4702 0.8929 0.4318
v 3.335938 0.429688 0.757812 0.6147 0.8848 0.6870
v 2.664062 0.429688 0.757812 0.6147 0.8848 0.6870
v 3.273438 0.421875 0.773438 0.5596 0.8929 0.6814
v 2.726562 0.421875 0.773438 0.5596 0.8929 0.6814
v 3.421875 0.398438 0.773438 0.6814 0.8929 0.6641
v 2.578125 0.398438 0.773438 0.6814 0.8929 0.6641
v 3.562500 0.351562 0.695312 0.7751 0.8517 0.6276
v 2.437500 0.351562 0.695312 0.7751 0.8517 0.6276
v 3.585938 0.289062 0.687500 0.7893 0.8475 0.5740
v 2.414062 0.289062 0.687500 0.7893 0.8475 0.5740
v 3.578125 0.195312 0.679688 0.7846 0.8432 0.4792
v 2.421875 0.195312 0.679688 0.7846 0.8432 0.4792
v 3.476562 0.101562 0.718750 0.7197 0.8643 0.3518
v 2.523438 0.101562 0.718750 0.7197 0.8643 0.3518
v 3.375000 0.062500 0.742188 0.6461 0.8767 0.2773
v 2.625000 0.062500 0.742188 0.6461 0.8767 0.2773
v 3.226562 0.109375 0.781250 0.5133 0.8968 0.3646
v 2.773438 0.109375 0.781250 0.5133 0.8968 0.3646
v 3.179688 0.296875 0.781250 0.4610 0.8968 0.5810
v 2.820312 0.296875 0.781250 0.4610 0.8968 0.5810
v 3.210938 0.375000 0.781250 0.4966 0.8968 0.6461
v 2.789062 0.375000 0.781250 0.4966 0.8968 0.6461
v 3.234375 0.359375 0.757812 0.5214 0.8848 0.6339
v 2.765625 0.359375 0.757812 0.5214 0.8848 0.6339
v 3.195312 0.296875 0.757812 0.4792 0.8848 0.5810
v 2.804688 0.296875 0.757812 0.4792 0.8848 0.5810
v 3.242188 0.125000 0.757812 0.5293 0.8848 0.3886
v 2.757812 0.125000 0.757812 0.5293 0.8848 0.3886
v 3.375000 0.085938 0.726562 0.6461 0.8685 0.3244
v 2.625000 0.085938 0.726562 0.6461 0.8685 0.3244
v 3.460938 0.117188 0.703125 0.7090 0.8560 0.3768
v 2.539062 0.117188 0.703125 0.7090 0.8560 0.3768
v 3.546875 0.210938 0.671875 0.7654 0.8389 0.4966
v 2.453125 0.210938 0.671875 0.7654 0.8389 0.4966
v 3.554688 0.281250 0.671875 0.7703 0.8389 0.5669
v 2.445312 0.281250 0.671875 0.7703 0.8389 0.5669
v 3.531250 0.335938 0.679688 0.7556 0.8432 0.6147
v 2.468750 0.335938 0.679688 0.7556 0.8432 0.6147
v 3.414062 0.390625 0.750000 0.6757 0.8808 0.6582
v 2.585938 0.390625 0.750000 0.6757 0.8808 0.6582
v 3.281250 0.398438 0.765625 0.5669 0.8889 0.6641
v 2.718750 0.398438 0.765625 0.5669 0.8889 0.6641
v 3.335938 0.406250 0.750000 0.6147 0.8808 0.6699
v 2.664062 0.406250 0.750000 0.6147 0.8808 0.6699
v 3.203125 0.171875 0.750000 0.4880 0.8808 0.4516
v 2.796875 0.171875 0.750000 0.4880 0.8808 0.4516
v 3.195312 0.226562 0.750000 0.4792 0.8808 0.5133
v 2.804688 0.226562 0.750000 0.4792 0.8808 0.5133
v 3.109375 0.460938 0.609375 0.3646 0.8032 0.7090
v 2.890625 0.460938 0.609375 0.3646 0.8032 0.7090
v 3.195312 0.664062 0.617188 0.4792 0.8078 0.8345
v 2.804688 0.664062 0.617188 0.4792 0.8078 0.8345
v 3.335938 0.687500 0.593750 0.6147 0.7940 0.8475
v 2.664062 0.687500 0.593750 0.6147 0.7940 0.8475
v 3.484375 0.554688 0.554688 0.7250 0.7703 0.7703
v 2.515625 0.554688 0.554688 0.7250 0.7703 0.7703
v 3.679688 0.453125 0.492188 0.8432 0.7302 0.7036
v 2.320312 0.453125 0.492188 0.8432 0.7302 0.7036
v 3.796875 0.406250 0.460938 0.9047 0.7090 0.6699
v 2.203125 0.406250 0.460938 0.9047 0.7090 0.6699
v 3.773438 0.164062 0.375000 0.8929 0.6461 0.4418
v 2.226562 0.164062 0.375000 0.8929 0.6461 0.4418
v 3.601562 0.000000 0.414062 0.7986 0.6757 0.0000
v 2.398438 0.000000 0.414062 0.7986 0.6757 0.0000
v 3.437500 -0.093750 0.468750 0.6926 0.7144 0.3385
v 2.562500 -0.093750 0.468750 0.6926 0.7144 0.3385
v 3.000000 0.898438 0.289062 0.0000 0.5740 0.9539
v 3.000000 0.984375 -0.078125 0.0000 0.3097 0.9931
v 3.000000 -0.195312 -0.671875 0.0000 0.8389 0.4792
v 3.000000 -0.460938 0.187500 0.0000 0.4702 0.7090
v 3.000000 -0.976562 0.460938 0.0000 0.7090 0.9896
v 3.000000 -0.804688 0.343750 0.0000 0.6212 0.9086
v 3.000000 -0.570312 0.320312 0.0000 0.6015 0.7799
v 3.000000 -0.484375 0.281250 0.0000 0.5669 0.7250
v 3.851562 0.234375 0.054688 0.9316 0.2593 0.5214
v 2.148438 0.234375 0.054688 0.9316 0.2593 0.5214
v 3.859375 0.320312 -0.046875 0.9354 0.2398 0.6015
v 2.140625 0.320312 -0.046875 0.9354 0.2398 0.6015
v 3.773438 0.265625 -0.437500 0.8929 0.6926 0.5523
v 2.226562 0.265625 -0.437500 0.8929 0.6926 0.5523
v 3.460938 0.437500 -0.703125 0.7090 0.8560 0.6926
v 2.539062 0.437500 -0.703125 0.7090 0.8560 0.6926
v 3.734375 -0.046875 0.070312 0.8726 0.2940 0.2398
v 2.265625 -0.046875 0.070312 0.8726 0.2940 0.2398
v 3.593750 -0.125000 -0.164062 0.7940 0.4418 0.3886
v 2.406250 -0.125000 -0.164062 0.7940 0.4418 0.3886
v 3.640625 -0.007812 -0.429688 0.8213 0.6870 0.0847
v 2.359375 -0.007812 -0.429688 0.8213 0.6870 0.0847
v 3.335938 0.054688 -0.664062 0.6147 0.8345 0.2593
v 2.664062 0.054688 -0.664062 0.6147 0.8345 0.2593
v 3.234375 -0.351562 0.406250 0.5214 0.6699 0.6276
v 2.765625 -0.351562 0.406250 0.5214 0.6699 0.6276
v 3.179688 -0.414062 0.257812 0.4610 0.5448 0.6757
v 2.820312 -0.414062 0.257812 0.4610 0.5448 0.6757
v 3.289062 -0.710938 0.382812 0.5740 0.6522 0.8602
v 2.710938 -0.710938 0.382812 0.5740 0.6522 0.8602
v 3.250000 -0.500000 0.390625 0.5371 0.6582 0.7353
v 2.750000 -0.500000 0.390625 0.5371 0.6582 0.7353
v 3.328125 -0.914062 0.398438 0.6082 0.6641 0.9612
v 2.671875 -0.914062 0.398438 0.6082 0.6641 0.9612
v 3.140625 -0.757812 0.367188 0.4109 0.6400 0.8848
v 2.859375 -0.757812 0.367188 0.4109 0.6400 0.8848
v 3.125000 -0.539062 0.359375 0.3886 0.6339 0.7605
v 2.875000 -0.539062 0.359375 0.3886 0.6339 0.7605
v 3.164062 -0.945312 0.437500 0.4418 0.6926 0.9755
v 2.835938 -0.945312 0.437500 0.4418 0.6926 0.9755
v 3.218750 -0.281250 0.429688 0.5050 0.6870 0.5669
v 2.781250 -0.281250 0.429688 0.5050 0.6870 0.5669
v 3.210938 -0.226562 0.468750 0.4966 0.7144 0.5133
v 2.789062 -0.226562 0.468750 0.4966 0.7144 0.5133
v 3.203125 -0.171875 0.500000 0.4880 0.7353 0.4516
v 2.796875 -0.171875 0.500000 0.4880 0.7353 0.4516
v 3.210938 -0.390625 0.164062 0.4966 0.4418 0.6582
v 2.789062 -0.390625 0.164062 0.4966 0.4418 0.6582
v 3.296875 -0.312500 -0.265625 0.5810 0.5523 0.5948
v 2.703125 -0.312500 -0.265625 0.5810 0.5523 0.5948
v 3.343750 -0.148438 -0.539062 0.6212 0.7605 0.4215
v 2.656250 -0.148438 -0.539062 0.6212 0.7605 0.4215
v 3.453125 0.867188 -0.382812 0.7036 0.6522 0.9391
v 2.546875 0.867188 -0.382812 0.7036 0.6522 0.9391
v 3.453125 0.929688 -0.070312 0.7036 0.2940 0.9684
v 2.546875 0.929688 -0.070312 0.7036 0.2940 0.9684
v 3.453125 0.851562 0.234375 0.7036 0.5214 0.9316
v 2.546875 0.851562 0.234375 0.7036 0.5214 0.9316
v 3.460938 0.523438 0.429688 0.7090 0.6870 0.7506
v 2.539062 0.523438 0.429688 0.7090 0.6870 0.7506
v 3.726562 0.406250 0.335938 0.8685 0.6147 0.6699
v 2.273438 0.406250 0.335938 0.8685 0.6147 0.6699
v 3.632812 0.453125 0.281250 0.8168 0.5669 0.7036
v 2.367188 0.453125 0.281250 0.8168 0.5669 0.7036
v 3.640625 0.703125 0.054688 0.8213 0.2593 0.8560
v 2.359375 0.703125 0.054688 0.8213 0.2593 0.8560
v 3.796875 0.562500 0.125000 0.9047 0.3886 0.7751
v 2.203125 0.562500 0.125000 0.9047 0.3886 0.7751
v 3.796875 0.617188 -0.117188 0.9047 0.3768 0.8078
v 2.203125 0.617188 -0.117188 0.9047 0.3768 0.8078
v 3.640625 0.750000 -0.195312 0.8213 0.4792 0.8808
v 2.359375 0.750000 -0.195312 0.8213 0.4792 0.8808
v 3.640625 0.679688 -0.445312 0.8213 0.6981 0.8432
v 2.359375 0.679688 -0.445312 0.8213 0.6981 0.8432
v 3.796875 0.539062 -0.359375 0.9047 0.6339 0.7605
v 2.203125 0.539062 -0.359375 0.9047 0.6339 0.7605
v 3.617188 0.328125 -0.585938 0.8078 0.7893 0.6082
v 2.382812 0.328125 -0.585938 0.8078 0.7893 0.6082
v 3.484375 0.023438 -0.546875 0.7250 0.7654 0.1658
v 2.515625 0.023438 -0.546875 0.7250 0.7654 0.1658
v 3.820312 0.328125 -0.203125 0.9164 0.4880 0.6082
v 2.179688 0.328125 -0.203125 0.9164 0.4880 0.6082
v 3.406250 -0.171875 0.148438 0.6699 0.4215 0.4516
v 2.593750 -0.171875 0.148438 0.6699 0.4215 0.4516
v 3.429688 -0.195312 -0.210938 0.6870 0.4966 0.4792
v 2.570312 -0.195312 -0.210938 0.6870 0.4966 0.4792
v 3.890625 0.406250 -0.234375 0.9503 0.5214 0.6699
v 2.109375 0.406250 -0.234375 0.9503 0.5214 0.6699
v 3.773438 -0.140625 -0.125000 0.8929 0.3886 0.4109
v 2.226562 -0.140625 -0.125000 0.8929 0.3886 0.4109
v 4.039062 -0.101562 -0.328125 1.0170 0.6082 0.3518
v 1.960938 -0.101562 -0.328125 1.0170 0.6082 0.3518
v 4.281250 0.054688 -0.429688 1.1148 0.6870 0.2593
v 1.718750 0.054688 -0.429688 1.1148 0.6870 0.2593
v 4.351562 0.320312 -0.421875 1.1412 0.6814 0.6015
v 1.648438 0.320312 -0.421875 1.1412 0.6814 0.6015
v 4.234375 0.507812 -0.421875 1.0968 0.6814 0.7405
v 1.765625 0.507812 -0.421875 1.0968 0.6814 0.7405
v 4.023438 0.476562 -0.312500 1.0102 0.5948 0.7197
v 1.976562 0.476562 -0.312500 1.0102 0.5948 0.7197
v 4.015625 0.414062 -0.289062 1.0068 0.5740 0.6757
v 1.984375 0.414062 -0.289062 1.0068 0.5740 0.6757
v 4.187500 0.437500 -0.390625 1.0783 0.6582 0.6926
v 1.812500 0.437500 -0.390625 1.0783 0.6582 0.6926
v 4.265625 0.289062 -0.406250 1.1088 0.6699 0.5740
v 1.734375 0.289062 -0.406250 1.1088 0.6699 0.5740
v 4.210938 0.078125 -0.406250 1.0876 0.6699 0.3097
v 1.789062 0.078125 -0.406250 1.0876 0.6699 0.3097
v 4.031250 -0.039062 -0.304688 1.0136 0.5879 0.2182
v 1.968750 -0.039062 -0.304688 1.0136 0.5879 0.2182
v 3.828125 -0.070312 -0.132812 0.9202 0.3999 0.2940
v 2.171875 -0.070312 -0.132812 0.9202 0.3999 0.2940
v 3.921875 0.359375 -0.218750 0.9648 0.5050 0.6339
v 2.078125 0.359375 -0.218750 0.9648 0.5050 0.6339
v 3.945312 0.304688 -0.289062 0.9755 0.5740 0.5879
v 2.054688 0.304688 -0.289062 0.9755 0.5740 0.5879
v 3.882812 -0.023438 -0.210938 0.9466 0.4966 0.1658
v 2.117188 -0.023438 -0.210938 0.9466 0.4966 0.1658
v 4.039062 0.000000 -0.367188 1.0170 0.6400 0.0000
v 1.960938 0.000000 -0.367188 1.0170 0.6400 0.0000
v 4.187500 0.093750 -0.445312 1.0783 0.6981 0.3385
v 1.812500 0.093750 -0.445312 1.0783 0.6981 0.3385
v 4.234375 0.250000 -0.445312 1.0968 0.6981 0.5371
v 1.765625 0.250000 -0.445312 1.0968 0.6981 0.5371
v 4.171875 0.359375 -0.437500 1.0721 0.6926 0.6339
v 1.828125 0.359375 -0.437500 1.0721 0.6926 0.6339
v 4.023438 0.343750 -0.359375 1.0102 0.6339 0.6212
v 1.976562 0.343750 -0.359375 1.0102 0.6339 0.6212
v 3.843750 0.289062 -0.210938 0.9279 0.4966 0.5740
v 2.156250 0.289062 -0.210938 0.9279 0.4966 0.5740
v 3.835938 0.171875 -0.273438 0.9241 0.5596 0.4516
v 2.164062 0.171875 -0.273438 0.9241 0.5596 0.4516
v 3.757812 0.093750 -0.273438 0.8848 0.5596 0.3385
v 2.242188 0.093750 -0.273438 0.8848 0.5596 0.3385
v 3.820312 0.085938 -0.273438 0.9164 0.5596 0.3244
v 2.179688 0.085938 -0.273438 0.9164 0.5596 0.3244
v 3.843750 0.015625 -0.273438 0.9279 0.5596 0.1315
v 2.156250 0.015625 -0.273438 0.9279 0.5596 0.1315
v 3.812500 -0.015625 -0.273438 0.9125 0.5596 0.1315
v 2.187500 -0.015625 -0.273438 0.9125 0.5596 0.1315
v 3.726562 0.000000 -0.070312 0.8685 0.2940 0.0000
v 2.273438 0.000000 -0.070312 0.8685 0.2940 0.0000
v 3.718750 -0.023438 -0.171875 0.8643 0.4516 0.1658
v 2.281250 -0.023438 -0.171875 0.8643 0.4516 0.1658
v 3.718750 0.039062 -0.187500 0.8643 0.4702 0.2182
v 2.281250 0.039062 -0.187500 0.8643 0.4702 0.2182
v 3.796875 0.203125 -0.210938 0.9047 0.4966 0.4880
v 2.203125 0.203125 -0.210938 0.9047 0.4966 0.4880
v 3.890625 0.242188 -0.265625 0.9503 0.5523 0.5293
v 2.109375 0.242188 -0.265625 0.9503 0.5523 0.5293
v 3.890625 0.234375 -0.320312 0.9503 0.6015 0.5214
v 2.109375 0.234375 -0.320312 0.9503 0.6015 0.5214
v 3.812500 -0.015625 -0.320312 0.9125 0.6015 0.1315
v 2.187500 -0.015625 -0.320312 0.9125 0.6015 0.1315
v 3.851562 0.015625 -0.320312 0.9316 0.6015 0.1315
v 2.148438 0.015625 -0.320312 0.9316 0.6015 0.1315
v 3.828125 0.078125 -0.320312 0.9202 0.6015 0.3097
v 2.171875 0.078125 -0.320312 0.9202 0.6015 0.3097
v 3.765625 0.093750 -0.320312 0.8889 0.6015 0.3385
v 2.234375 0.093750 -0.320312 0.8889 0.6015 0.3385
v 3.843750 0.171875 -0.320312 0.9279 0.6015 0.4516
v 2.156250 0.171875 -0.320312 0.9279 0.6015 0.4516
v 4.039062 0.328125 -0.414062 1.0170 0.6757 0.6082
v 1.960938 0.328125 -0.414062 1.0170 0.6757 0.6082
v 4.187500 0.343750 -0.484375 1.0783 0.7250 0.6212
v 1.812500 0.343750 -0.484375 1.0783 0.7250 0.6212
v 4.257812 0.242188 -0.492188 1.1058 0.7302 0.5293
v 1.742188 0.242188 -0.492188 1.1058 0.7302 0.5293
v 4.210938 0.085938 -0.484375 1.0876 0.7250 0.3244
v 1.789062 0.085938 -0.484375 1.0876 0.7250 0.3244
v 4.046875 0.000000 -0.421875 1.0203 0.6814 0.0000
v 1.953125 0.000000 -0.421875 1.0203 0.6814 0.0000
v 3.882812 -0.015625 -0.265625 0.9466 0.5523 0.1315
v 2.117188 -0.015625 -0.265625 0.9466 0.5523 0.1315
v 3.953125 0.289062 -0.343750 0.9791 0.6212 0.5740
v 2.046875 0.289062 -0.343750 0.9791 0.6212 0.5740
v 3.890625 0.109375 -0.328125 0.9503 0.6082 0.3646
v 2.109375 0.109375 -0.328125 0.9503 0.6082 0.3646
v 3.937500 0.062500 -0.335938 0.9720 0.6147 0.2773
v 2.062500 0.062500 -0.335938 0.9720 0.6147 0.2773
v 4.000000 0.125000 -0.367188 1.0000 0.6400 0.3886
v 2.000000 0.125000 -0.367188 1.0000 0.6400 0.3886
v 3.960938 0.171875 -0.351562 0.9826 0.6276 0.4516
v 2.039062 0.171875 -0.351562 0.9826 0.6276 0.4516
v 4.015625 0.234375 -0.375000 1.0068 0.6461 0.5214
v 1.984375 0.234375 -0.375000 1.0068 0.6461 0.5214
v 4.054688 0.187500 -0.382812 1.0236 0.6522 0.4702
v 1.945312 0.187500 -0.382812 1.0236 0.6522 0.4702
v 4.109375 0.210938 -0.390625 1.0466 0.6582 0.4966
v 1.890625 0.210938 -0.390625 1.0466 0.6582 0.4966
v 4.085938 0.273438 -0.390625 1.0369 0.6582 0.5596
v 1.914062 0.273438 -0.390625 1.0369 0.6582 0.5596
v 4.023438 0.437500 -0.484375 1.0102 0.7250 0.6926
v 1.976562 0.437500 -0.484375 1.0102 0.7250 0.6926
v 4.250000 0.468750 -0.546875 1.1028 0.7654 0.7144
v 1.750000 0.468750 -0.546875 1.1028 0.7654 0.7144
v 4.367188 0.296875 -0.500000 1.1469 0.7353 0.5810
v 1.632812 0.296875 -0.500000 1.1469 0.7353 0.5810
v 4.312500 0.054688 -0.531250 1.1266 0.7556 0.2593
v 1.687500 0.054688 -0.531250 1.1266 0.7556 0.2593
v 4.039062 -0.085938 -0.492188 1.0170 0.7302 0.3244
v 1.960938 -0.085938 -0.492188 1.0170 0.7302 0.3244
v 3.789062 -0.125000 -0.328125 0.9008 0.6082 0.3886
v 2.210938 -0.125000 -0.328125 0.9008 0.6082 0.3886
v 3.859375 0.382812 -0.382812 0.9354 0.6522 0.6522
v 2.140625 0.382812 -0.382812 0.9354 0.6522 0.6522
vn 0.7277 -0.6545 0.2051
vn -0.7277 -0.6545 0.2051
vn 0.6040 -0.5102 0.6122
vn -0.6040 -0.5102 0.6122
vn 0.6830 -0.5475 0.4836
vn -0.6830 -0.5475 0.4836
vn 0.1159 -0.8670 0.4847
vn -0.1159 -0.8670 0.4847
vn 0.0982 -0.7510 0.6530
vn -0.0982 -0.7510 0.6530
vn 0.0375 -0.9651 0.2592
vn -0.0375 -0.9651 0.2592
vn -0.6554 -0.6928 0.3008
vn 0.6554 -0.6928 0.3008
vn -0.4514 -0.5393 0.7109
vn 0.4514 -0.5393 0.7109
vn -0.5512 -0.6358 0.5402
vn 0.5512 -0.6358 0.5402
vn -0.8148 -0.0038 0.5797
vn 0.8148 -0.0038 0.5797
vn -0.6940 -0.0035 0.7200
vn 0.6940 -0.0035 0.7200
vn -0.9461 -0.0129 0.3237
vn 0.9461 -0.0129 0.3237
vn -0.6622 0.6914 0.2889
vn 0.6622 0.6914 0.2889
vn -0.4551 0.5251 0.7191
vn 0.4551 0.5251 0.7191
vn -0.5298 0.6266 0.5716
vn 0.5298 0.6266 0.5716
vn 0.1224 0.8373 0.5328
vn -0.1224 0.8373 0.5328
vn 0.1019 0.7402 0.6647
vn -0.1019 0.7402 0.6647
vn 0.0321 0.9710 0.2369
vn -0.0321 0.9710 0.2369
vn 0.7321 0.6528 0.1949
vn -0.7321 0.6528 0.1949
vn 0.6085 0.4949 0.6203
vn -0.6085 0.4949 0.6203
vn 0.6722 0.5381 0.5084
vn -0.6722 0.5381 0.5084
vn 0.8684 -0.0033 0.4958
vn -0.8684 -0.0033 0.4958
vn 0.8021 -0.0034 0.5972
vn -0.8021 -0.0034 0.5972
vn 0.9777 -0.0110 0.2098
vn -0.9777 -0.0110 0.2098
vn 0.9738 -0.0122 0.2273
vn -0.9738 -0.0122 0.2273
vn 0.7220 0.6499 0.2374
vn -0.7220 0.6499 0.2374
vn 0.0374 0.9336 0.3564
vn -0.0374 0.9336 0.3564
vn -0.6264 0.6470 0.4348
vn 0.6264 0.6470 0.4348
vn -0.9113 -0.0123 0.4116
vn 0.9113 -0.0123 0.4116
vn -0.6182 -0.6538 0.4364
vn 0.6182 -0.6538 0.4364
vn 0.1836 -0.0053 0.9830
vn -0.1836 -0.0053 0.9830
vn 0.0369 -0.9351 0.3524
vn -0.0369 -0.9351 0.3524
vn 0.7151 -0.6569 0.2391
vn -0.7151 -0.6569 0.2391
vn -0.0000 0.9595 0.2816
vn -0.0000 -0.0241 0.9997
vn -0.0000 -0.0342 0.9994
vn -0.0000 -0.8574 0.5146
vn -0.0000 0.7851 0.6194
vn -0.0000 -0.9031 0.4294
vn -0.0000 0.8794 0.4760
vn -0.0000 0.6204 0.7843
vn -0.0000 0.8326 -0.5539
vn -0.0000 0.3141 -0.9494
vn -0.0000 -0.3005 -0.9538
vn -0.0000 -0.9410 -0.3385
vn 0.9053 -0.3891 0.1703
vn -0.9053 -0.3891 0.1703
vn 0.9651 0.2190 0.1435
vn -0.9651 0.2190 0.1435
vn 0.9758 0.0949 0.1970
vn -0.9758 0.0949 0.1970
vn 0.9696 -0.1473 0.1954
vn -0.9696 -0.1473 0.1954
vn 0.6541 -0.7418 0.1480
vn -0.6541 -0.7418 0.1480
vn 0.1576 -0.9745 0.1596
vn -0.1576 -0.9745 0.1596
vn -0.0000 -0.9777 0.2098
vn 0.3606 -0.9316 0.0455
vn -0.3606 -0.9316 0.0455
vn 0.5889 -0.7908 0.1668
vn -0.5889 -0.7908 0.1668
vn 0.9126 -0.4027 -0.0698
vn -0.9126 -0.4027 -0.0698
vn 0.8801 0.4239 0.2138
vn -0.8801 0.4239 0.2138
vn 0.5100 0.8330 0.2144
vn -0.5100 0.8330 0.2144
vn 0.5978 0.7838 0.1683
vn -0.5978 0.7838 0.1683
vn 0.2283 0.9588 0.1689
vn -0.2283 0.9588 0.1689
vn -0.5987 0.7774 0.1930
vn 0.5987 0.7774 0.1930
vn -0.7918 0.5829 0.1826
vn 0.7918 0.5829 0.1826
vn 0.2654 -0.2040 0.9423
vn -0.2654 -0.2040 0.9423
vn 0.0284 -0.1986 0.9797
vn -0.0284 -0.1986 0.9797
vn -0.1350 -0.2146 0.9673
vn 0.1350 -0.2146 0.9673
vn 0.3106 -0.3403 0.8875
vn -0.3106 -0.3403 0.8875
vn 0.4194 -0.3797 0.8245
vn -0.4194 -0.3797 0.8245
vn 0.4415 -0.2059 0.8733
vn -0.4415 -0.2059 0.8733
vn 0.3630 -0.2123 0.9073
vn -0.3630 -0.2123 0.9073
vn 0.2414 -0.3067 0.9207
vn -0.2414 -0.3067 0.9207
vn 0.1978 -0.0105 0.9802
vn -0.1978 -0.0105 0.9802
vn 0.2661 -0.1257 0.9557
vn -0.2661 -0.1257 0.9557
vn -0.0000 -0.4257 0.9048
vn 0.1559 -0.1707 0.9729
vn -0.1559 -0.1707 0.9729
vn 0.0891 -0.3229 0.9422
vn -0.0891 -0.3229 0.9422
vn -0.0252 -0.4118 0.9109
vn 0.0252 -0.4118 0.9109
vn -0.0000 -0.3313 0.9435
vn -0.0000 0.7593 0.6508
vn -0.0000 0.5693 0.8221
vn 0.2528 0.3479 0.9028
vn -0.2528 0.3479 0.9028
vn 0.7216 -0.3646 0.5886
vn -0.7216 -0.3646 0.5886
vn 0.4969 -0.4356 0.7506
vn -0.4969 -0.4356 0.7506
vn 0.3809 -0.5176 0.7662
vn -0.3809 -0.5176 0.7662
vn 0.4988 -0.4012 0.7683
vn -0.4988 -0.4012 0.7683
vn 0.5489 -0.3266 0.7694
vn -0.5489 -0.3266 0.7694
vn 0.4876 -0.1471 0.8606
vn -0.4876 -0.1471 0.8606
vn 0.3417 -0.0325 0.9393
vn -0.3417 -0.0325 0.9393
vn 0.3141 -0.0304 0.9489
vn -0.3141 -0.0304 0.9489
vn 0.2712 0.2130 0.9387
vn -0.2712 0.2130 0.9387
vn -0.1643 0.1591 0.9735
vn 0.1643 0.1591 0.9735
vn -0.0729 -0.0287 0.9969
vn 0.0729 -0.0287 0.9969
vn 0.0663 -0.1929 0.9790
vn -0.0663 -0.1929 0.9790
vn 0.5872 0.1120 0.8017
vn -0.5872 0.1120 0.8017
vn 0.5679 -0.0330 0.8225
vn -0.5679 -0.0330 0.8225
vn 0.5559 -0.2160 0.8027
vn -0.5559 -0.2160 0.8027
vn 0.3630 -0.6184 0.6970
vn -0.3630 -0.6184 0.6970
vn 0.1679 -0.7535 0.6357
vn -0.1679 -0.7535 0.6357
vn -0.0000 -0.7922 0.6103
vn -0.0000 0.0135 0.9999
vn -0.0000 -0.2235 0.9747
vn 0.1334 -0.0975 0.9862
vn -0.1334 -0.0975 0.9862
vn -0.3104 -0.1698 0.9353
vn 0.3104 -0.1698 0.9353
vn -0.1624 -0.1998 0.9663
vn 0.1624 -0.1998 0.9663
vn 0.1803 -0.0579 0.9819
vn -0.1803 -0.0579 0.9819
vn 0.1386 0.0029 0.9903
vn -0.1386 0.0029 0.9903
vn -0.0000 -0.0041 1.0000
vn -0.0000 -0.4576 0.8892
vn 0.5803 -0.7307 0.3597
vn -0.5803 -0.7307 0.3597
vn 0.9246 -0.2129 0.3159
vn -0.9246 -0.2129 0.3159
vn 0.6218 0.7744 0.1168
vn -0.6218 0.7744 0.1168
vn -0.3018 0.9416 0.1492
vn 0.3018 0.9416 0.1492
vn -0.0000 0.1136 0.9935
vn -0.1992 0.6018 0.7734
vn 0.1992 0.6018 0.7734
vn 0.3664 0.4752 0.8000
vn -0.3664 0.4752 0.8000
vn 0.4297 -0.1850 0.8838
vn -0.4297 -0.1850 0.8838
vn 0.2206 -0.5640 0.7958
vn -0.2206 -0.5640 0.7958
vn -0.0000 -0.5286 0.8489
vn 0.9385 0.3251 0.1161
vn -0.9385 0.3251 0.1161
vn 0.7431 0.0295 0.6686
vn -0.7431 0.0295 0.6686
vn 0.6464 0.1424 0.7496
vn -0.6464 0.1424 0.7496
vn 0.9534 0.2816 0.1079
vn -0.9534 0.2816 0.1079
vn -0.0000 0.6467 0.7627
vn -0.3705 0.5450 0.7521
vn 0.3705 0.5450 0.7521
vn -0.6503 0.0615 0.7572
vn 0.6503 0.0615 0.7572
vn -0.1140 -0.6151 0.7802
vn 0.1140 -0.6151 0.7802
vn -0.0000 -0.6989 0.7153
vn -0.5164 -0.7041 0.4874
vn 0.5164 -0.7041 0.4874
vn -0.6748 0.1147 0.7290
vn 0.6748 0.1147 0.7290
vn -0.3272 0.4745 0.8172
vn 0.3272 0.4745 0.8172
vn -0.0000 0.5289 0.8487
vn 0.1649 -0.0897 0.9822
vn -0.1649 -0.0897 0.9822
vn -0.0170 -0.0610 0.9980
vn 0.0170 -0.0610 0.9980
vn 0.1657 0.1129 0.9797
vn -0.1657 0.1129 0.9797
vn 0.1829 0.0367 0.9825
vn -0.1829 0.0367 0.9825
vn 0.1731 -0.1109 0.9786
vn -0.1731 -0.1109 0.9786
vn 0.3063 0.0342 0.9513
vn -0.3063 0.0342 0.9513
vn 0.1870 -0.0655 0.9802
vn -0.1870 -0.0655 0.9802
vn 0.2990 -0.0934 0.9497
vn -0.2990 -0.0934 0.9497
vn 0.2858 -0.0425 0.9573
vn -0.2858 -0.0425 0.9573
vn 0.1998 -0.2072 0.9577
vn -0.1998 -0.2072 0.9577
vn 0.0129 -0.1560 0.9877
vn -0.0129 -0.1560 0.9877
vn 0.2359 -0.1089 0.9657
vn -0.2359 -0.1089 0.9657
vn 0.1634 -0.0836 0.9830
vn -0.1634 -0.0836 0.9830
vn 0.5010 -0.3839 0.7757
vn -0.5010 -0.3839 0.7757
vn 0.7464 -0.2135 0.6303
vn -0.7464 -0.2135 0.6303
vn 0.4245 0.5609 0.7108
vn -0.4245 0.5609 0.7108
vn 0.1489 0.6135 0.7755
vn -0.1489 0.6135 0.7755
vn -0.0831 0.5416 0.8365
vn 0.0831 0.5416 0.8365
vn -0.2549 0.2241 0.9406
vn 0.2549 0.2241 0.9406
vn -0.3549 -0.1286 0.9260
vn 0.3549 -0.1286 0.9260
vn -0.1943 -0.6161 0.7633
vn 0.1943 -0.6161 0.7633
vn -0.1401 -0.7621 0.6322
vn 0.1401 -0.7621 0.6322
vn 0.3063 -0.3431 0.8879
vn -0.3063 -0.3431 0.8879
vn 0.0021 -0.4953 0.8687
vn -0.0021 -0.4953 0.8687
vn 0.6875 0.2974 0.6625
vn -0.6875 0.2974 0.6625
vn 0.8052 0.0150 0.5928
vn -0.8052 0.0150 0.5928
vn -0.5046 0.8622 0.0448
vn 0.5046 0.8622 0.0448
vn -0.4770 0.5100 -0.7158
vn 0.4770 0.5100 -0.7158
vn 0.1146 0.6555 -0.7464
vn -0.1146 0.6555 -0.7464
vn 0.3084 0.9138 -0.2642
vn -0.3084 0.9138 -0.2642
vn 0.3515 0.9088 -0.2249
vn -0.3515 0.9088 -0.2249
vn 0.7392 0.6005 -0.3049
vn -0.7392 0.6005 -0.3049
vn 0.9393 -0.3068 -0.1533
vn -0.9393 -0.3068 -0.1533
vn 0.5768 -0.8111 -0.0972
vn -0.5768 -0.8111 -0.0972
vn 0.4394 -0.8925 -0.1016
vn -0.4394 -0.8925 -0.1016
vn -0.0000 0.8267 0.5627
vn -0.0000 0.9997 0.0232
vn -0.0000 -0.6967 -0.7174
vn -0.0000 -0.9863 -0.1650
vn -0.0000 -0.8508 -0.5255
vn -0.0000 -0.2978 -0.9546
vn -0.0000 -0.3178 -0.9482
vn -0.0000 -0.8051 -0.5931
vn 0.9762 -0.2020 0.0787
vn -0.9762 -0.2020 0.0787
vn 0.9989 -0.0455 0.0062
vn -0.9989 -0.0455 0.0062
vn 0.6260 -0.0260 -0.7794
vn -0.6260 -0.0260 -0.7794
vn 0.4534 0.1969 -0.8693
vn -0.4534 0.1969 -0.8693
vn 0.7152 -0.6950 0.0736
vn -0.7152 -0.6950 0.0736
vn 0.2744 -0.9600 -0.0552
vn -0.2744 -0.9600 -0.0552
vn 0.4020 -0.6167 -0.6768
vn -0.4020 -0.6167 -0.6768
vn 0.4237 -0.3240 -0.8459
vn -0.4237 -0.3240 -0.8459
vn 0.9602 -0.0017 -0.2794
vn -0.9602 -0.0017 -0.2794
vn 0.7260 -0.5865 -0.3591
vn -0.7260 -0.5865 -0.3591
vn 0.6058 0.0208 -0.7953
vn -0.6058 0.0208 -0.7953
vn 0.7766 -0.0093 -0.6299
vn -0.7766 -0.0093 -0.6299
vn 0.5587 -0.4679 -0.6848
vn -0.5587 -0.4679 -0.6848
vn 0.1293 -0.1789 -0.9753
vn -0.1293 -0.1789 -0.9753
vn 0.3375 -0.2535 -0.9066
vn -0.3375 -0.2535 -0.9066
vn 0.0993 -0.7680 -0.6328
vn -0.0993 -0.7680 -0.6328
vn 0.9731 -0.2302 0.0002
vn -0.9731 -0.2302 0.0002
vn 0.9537 -0.1999 0.2247
vn -0.9537 -0.1999 0.2247
vn 0.8140 -0.5544 0.1732
vn -0.8140 -0.5544 0.1732
vn 0.5888 -0.8081 -0.0185
vn -0.5888 -0.8081 -0.0185
vn 0.5214 -0.8255 -0.2162
vn -0.5214 -0.8255 -0.2162
vn 0.5191 -0.6556 -0.5483
vn -0.5191 -0.6556 -0.5483
vn 0.4258 0.8032 -0.4166
vn -0.4258 0.8032 -0.4166
vn 0.4198 0.9070 0.0349
vn -0.4198 0.9070 0.0349
vn 0.4611 0.7338 0.4990
vn -0.4611 0.7338 0.4990
vn 0.3916 0.8280 0.4012
vn -0.3916 0.8280 0.4012
vn 0.7652 0.6244 0.1565
vn -0.7652 0.6244 0.1565
vn 0.4721 0.7778 0.4150
vn -0.4721 0.7778 0.4150
vn 0.6514 0.6815 0.3336
vn -0.6514 0.6815 0.3336
vn 0.7475 0.5326 0.3969
vn -0.7475 0.5326 0.3969
vn 0.8548 0.5181 -0.0301
vn -0.8548 0.5181 -0.0301
vn 0.6788 0.7318 -0.0612
vn -0.6788 0.7318 -0.0612
vn 0.6441 0.5380 -0.5438
vn -0.6441 0.5380 -0.5438
vn 0.8739 0.3070 -0.3769
vn -0.8739 0.3070 -0.3769
vn 0.5860 -0.0155 -0.8101
vn -0.5860 -0.0155 -0.8101
vn 0.5443 -0.4959 -0.6766
vn -0.5443 -0.4959 -0.6766
vn 0.8965 0.3044 0.3220
vn -0.8965 0.3044 0.3220
vn 0.5731 -0.8037 0.1600
vn -0.5731 -0.8037 0.1600
vn 0.5809 -0.8007 -0.1463
vn -0.5809 -0.8007 -0.1463
vn -0.2878 0.7388 0.6094
vn 0.2878 0.7388 0.6094
vn -0.0439 -0.6482 0.7602
vn 0.0439 -0.6482 0.7602
vn 0.4719 -0.7796 0.4117
vn -0.4719 -0.7796 0.4117
vn 0.6731 -0.4998 0.5450
vn -0.6731 -0.4998 0.5450
vn 0.7896 0.1790 0.5870
vn -0.7896 0.1790 0.5870
vn 0.3604 0.8605 0.3600
vn -0.3604 0.8605 0.3600
vn 0.0163 0.8736 0.4863
vn -0.0163 0.8736 0.4863
vn 0.5421 -0.0674 0.8376
vn -0.5421 -0.0674 0.8376
vn 0.3174 -0.0930 0.9437
vn -0.3174 -0.0930 0.9437
vn -0.1201 -0.0897 0.9887
vn 0.1201 -0.0897 0.9887
vn -0.0240 0.2740 0.9614
vn 0.0240 0.2740 0.9614
vn 0.4922 0.2738 0.8263
vn -0.4922 0.2738 0.8263
vn 0.3413 0.3527 0.8713
vn -0.3413 0.3527 0.8713
vn 0.4590 -0.0631 0.8862
vn -0.4590 -0.0631 0.8862
vn 0.6878 -0.5533 0.4698
vn -0.6878 -0.5533 0.4698
vn 0.2330 0.8788 0.4164
vn -0.2330 0.8788 0.4164
vn -0.1665 0.9539 0.2497
vn 0.1665 0.9539 0.2497
vn -0.7613 0.6471 0.0399
vn 0.7613 0.6471 0.0399
vn -0.9810 -0.0934 0.1698
vn 0.9810 -0.0934 0.1698
vn -0.1410 -0.7728 0.6188
vn 0.1410 -0.7728 0.6188
vn 0.5587 -0.6583 0.5044
vn -0.5587 -0.6583 0.5044
vn 0.7427 -0.2611 0.6166
vn -0.7427 -0.2611 0.6166
vn 0.7481 -0.5799 0.3224
vn -0.7481 -0.5799 0.3224
vn 0.8589 0.0371 0.5108
vn -0.8589 0.0371 0.5108
vn 0.5731 0.7263 0.3796
vn -0.5731 0.7263 0.3796
vn 0.8837 -0.0625 0.4639
vn -0.8837 -0.0625 0.4639
vn 0.5933 0.5663 0.5720
vn -0.5933 0.5663 0.5720
vn 0.8615 -0.4880 -0.1400
vn -0.8615 -0.4880 -0.1400
vn 0.7451 0.0855 0.6615
vn -0.7451 0.0855 0.6615
vn 0.9210 -0.1749 0.3480
vn -0.9210 -0.1749 0.3480
vn 0.8720 -0.4240 0.2446
vn -0.8720 -0.4240 0.2446
vn 0.6963 -0.5412 0.4714
vn -0.6963 -0.5412 0.4714
vn 0.6669 -0.4348 0.6052
vn -0.6669 -0.4348 0.6052
vn 0.6600 0.3495 0.6650
vn -0.6600 0.3495 0.6650
vn 0.3739 0.3687 0.8510
vn -0.3739 0.3687 0.8510
vn 0.4447 0.3740 0.8138
vn -0.4447 0.3740 0.8138
vn 0.7837 0.2514 0.5680
vn -0.7837 0.2514 0.5680
vn 0.5714 -0.4259 0.7015
vn -0.5714 -0.4259 0.7015
vn 0.4844 -0.3373 0.8072
vn -0.4844 -0.3373 0.8072
vn -0.2485 -0.5826 0.7738
vn 0.2485 -0.5826 0.7738
vn -0.7433 -0.0973 0.6618
vn 0.7433 -0.0973 0.6618
vn -0.5392 0.4506 0.7115
vn 0.5392 0.4506 0.7115
vn 0.0873 0.7401 0.6668
vn -0.0873 0.7401 0.6668
vn -0.0507 0.9519 0.3023
vn 0.0507 0.9519 0.3023
vn 0.6358 -0.4092 0.6545
vn -0.6358 -0.4092 0.6545
vn 0.1984 0.0051 0.9801
vn -0.1984 0.0051 0.9801
vn 0.3855 0.1162 0.9154
vn -0.3855 0.1162 0.9154
vn 0.4316 -0.0331 0.9015
vn -0.4316 -0.0331 0.9015
vn 0.3281 0.0002 0.9446
vn -0.3281 0.0002 0.9446
vn 0.3178 0.0937 0.9435
vn -0.3178 0.0937 0.9435
vn 0.3447 -0.0767 0.9356
vn -0.3447 -0.0767 0.9356
vn 0.4365 -0.0136 0.8996
vn -0.4365 -0.0136 0.8996
vn 0.3573 0.2980 0.8851
vn -0.3573 0.2980 0.8851
vn -0.4176 0.5586 -0.7166
vn 0.4176 0.5586 -0.7166
vn 0.3048 0.6219 -0.7214
vn -0.3048 0.6219 -0.7214
vn 0.9234 0.0856 -0.3741
vn -0.9234 0.0856 -0.3741
vn 0.6150 -0.4906 -0.6174
vn -0.6150 -0.4906 -0.6174
vn -0.0419 -0.6989 -0.7140
vn 0.0419 -0.6989 -0.7140
vn -0.0798 -0.8453 -0.5283
vn 0.0798 -0.8453 -0.5283
vn -0.6562 0.5715 -0.4927
vn 0.6562 0.5715 -0.4927
vt 0.843250 0.588863
vt 0.833697 0.611927
vt 0.794218 0.611927
vt 0.815334 0.560948
vt 0.866314 0.937441
vt 0.866314 0.897962
vt 0.889378 0.888409
vt 0.917293 0.916324
vt 0.746541 0.611927
vt 0.781622 0.527235
vt 0.866314 0.985118
vt 0.951006 0.950037
vt 0.815334 0.662907
vt 0.781622 0.696619
vt 0.781622 0.950037
vt 0.815334 0.916325
vt 0.843250 0.634991
vt 0.843250 0.888409
vt 0.866314 0.644544
vt 0.866314 0.684023
vt 0.794218 0.865345
vt 0.833697 0.865345
vt 0.866314 0.731700
vt 0.746541 0.865345
vt 0.917293 0.662907
vt 0.951006 0.696619
vt 0.781622 0.780653
vt 0.815334 0.814366
vt 0.889378 0.634991
vt 0.843250 0.842281
vt 0.898931 0.611927
vt 0.938410 0.611927
vt 0.866314 0.793249
vt 0.866314 0.832728
vt 0.986087 0.611927
vt 0.866314 0.745572
vt 0.917294 0.560947
vt 0.951006 0.527235
vt 0.951006 0.780653
vt 0.917294 0.814365
vt 0.889378 0.588863
vt 0.889378 0.842281
vt 0.866314 0.579310
vt 0.866314 0.539831
vt 0.938410 0.865345
vt 0.898931 0.865345
vt 0.866314 0.492154
vt 0.986087 0.865345
vt 0.866314 0.585461
vt 0.847600 0.593213
vt 0.892780 0.865345
vt 0.885028 0.884059
vt 0.885028 0.593213
vt 0.885028 0.846631
vt 0.892780 0.611927
vt 0.866314 0.838879
vt 0.885028 0.630641
vt 0.847600 0.846631
vt 0.866314 0.638393
vt 0.839848 0.865345
vt 0.847600 0.630641
vt 0.847600 0.884059
vt 0.839848 0.611927
vt 0.866314 0.891811
vt 0.866314 0.611927
vt 0.866314 0.865345
vt 0.520711 0.060503
vt 0.517028 0.068490
vt 0.500000 0.064527
vt 0.500000 0.054411
vt 0.482972 0.068490
vt 0.479289 0.060503
vt 0.530457 0.065062
vt 0.522612 0.070678
vt 0.477388 0.070678
vt 0.469543 0.065062
vt 0.532878 0.067822
vt 0.526301 0.079422
vt 0.473699 0.079422
vt 0.467122 0.067822
vt 0.544695 0.083023
vt 0.529228 0.091098
vt 0.470772 0.091098
vt 0.455305 0.083023
vt 0.565647 0.115495
vt 0.537536 0.127779
vt 0.462464 0.127779
vt 0.434353 0.115495
vt 0.586916 0.172042
vt 0.626605 0.208159
vt 0.600470 0.238288
vt 0.535885 0.215568
vt 0.399530 0.238288
vt 0.373395 0.208159
vt 0.413084 0.172042
vt 0.464115 0.215568
vt 0.650908 0.240294
vt 0.636962 0.261221
vt 0.363038 0.261221
vt 0.349092 0.240294
vt 0.689501 0.268805
vt 0.655896 0.284413
vt 0.344104 0.284413
vt 0.310499 0.268805
vt 0.684517 0.317795
vt 0.659507 0.313152
vt 0.340493 0.313152
vt 0.315483 0.317795
vt 0.671357 0.334694
vt 0.649107 0.322437
vt 0.350893 0.322437
vt 0.328643 0.334694
vt 0.636775 0.370732
vt 0.613636 0.353108
vt 0.386364 0.353108
vt 0.363225 0.370732
vt 0.602261 0.395588
vt 0.594178 0.371277
vt 0.405822 0.371277
vt 0.397739 0.395588
vt 0.581044 0.398468
vt 0.577351 0.373341
vt 0.422649 0.373341
vt 0.418956 0.398468
vt 0.532016 0.387365
vt 0.539817 0.354339
vt 0.460183 0.354339
vt 0.467984 0.387365
vt 0.500000 0.382860
vt 0.500000 0.340417
vt 0.559135 0.334326
vt 0.579057 0.335646
vt 0.420943 0.335646
vt 0.440865 0.334326
vt 0.592090 0.332885
vt 0.407910 0.332885
vt 0.606163 0.325516
vt 0.393837 0.325516
vt 0.628251 0.311636
vt 0.371749 0.311636
vt 0.635551 0.300507
vt 0.364449 0.300507
vt 0.631484 0.283889
vt 0.368516 0.283889
vt 0.611331 0.264411
vt 0.388669 0.264411
vt 0.592372 0.254897
vt 0.407628 0.254897
vt 0.559669 0.267717
vt 0.440331 0.267717
vt 0.550878 0.277832
vt 0.500000 0.252445
vt 0.449122 0.277832
vt 0.544001 0.314523
vt 0.455999 0.314523
vt 0.500000 0.295691
vt 0.543637 0.293371
vt 0.456363 0.293371
vt 0.506819 0.075382
vt 0.500000 0.073497
vt 0.493181 0.075382
vt 0.511782 0.080633
vt 0.488218 0.080633
vt 0.512172 0.093457
vt 0.487828 0.093457
vt 0.514257 0.133422
vt 0.513874 0.097191
vt 0.486126 0.097191
vt 0.485743 0.133422
vt 0.520226 0.164615
vt 0.500000 0.157864
vt 0.500000 0.134352
vt 0.479774 0.164615
vt 0.500000 0.100063
vt 0.500000 0.091346
vt 0.530258 0.180239
vt 0.521901 0.181560
vt 0.517666 0.172353
vt 0.482334 0.172353
vt 0.478099 0.181560
vt 0.469742 0.180239
vt 0.523673 0.198817
vt 0.518957 0.194728
vt 0.481043 0.194728
vt 0.476327 0.198817
vt 0.500000 0.203867
vt 0.508211 0.197295
vt 0.491789 0.197295
vt 0.500000 0.197278
vt 0.500000 0.192167
vt 0.500000 0.165170
vt 0.513538 0.176949
vt 0.500000 0.171718
vt 0.486462 0.176949
vt 0.500000 0.186182
vt 0.508818 0.192407
vt 0.491182 0.192407
vt 0.515232 0.190709
vt 0.484768 0.190709
vt 0.516908 0.181873
vt 0.483092 0.181873
vt 0.544209 0.172814
vt 0.455791 0.172814
vt 0.541327 0.154899
vt 0.458673 0.154899
vt 0.578661 0.139176
vt 0.421339 0.139176
vt 0.583245 0.154155
vt 0.416755 0.154155
vt 0.500000 0.089977
vt 0.509911 0.090724
vt 0.490089 0.090724
vt 0.509713 0.082236
vt 0.490287 0.082236
vt 0.505196 0.077083
vt 0.494804 0.077083
vt 0.500000 0.075473
vt 0.503445 0.080840
vt 0.500000 0.080320
vt 0.496555 0.080840
vt 0.506660 0.083289
vt 0.493340 0.083289
vt 0.506822 0.086791
vt 0.493178 0.086791
vt 0.500000 0.085637
vt 0.562361 0.284338
vt 0.559190 0.294882
vt 0.437639 0.284338
vt 0.440810 0.294882
vt 0.563180 0.307151
vt 0.436820 0.307151
vt 0.570458 0.318697
vt 0.429542 0.318697
vt 0.569243 0.278245
vt 0.430757 0.278245
vt 0.589914 0.271772
vt 0.410086 0.271772
vt 0.602190 0.277180
vt 0.397810 0.277180
vt 0.617110 0.287175
vt 0.382890 0.287175
vt 0.618074 0.299197
vt 0.381926 0.299197
vt 0.615871 0.307438
vt 0.384129 0.307438
vt 0.598424 0.313725
vt 0.401576 0.313725
vt 0.590828 0.319797
vt 0.409172 0.319797
vt 0.582130 0.320991
vt 0.417870 0.320991
vt 0.578615 0.309394
vt 0.583998 0.312892
vt 0.421385 0.309394
vt 0.416002 0.312892
vt 0.589656 0.312336
vt 0.410344 0.312336
vt 0.596347 0.309249
vt 0.403653 0.309249
vt 0.606014 0.302517
vt 0.393986 0.302517
vt 0.607735 0.297520
vt 0.392265 0.297520
vt 0.606985 0.291216
vt 0.393015 0.291216
vt 0.598275 0.283083
vt 0.401725 0.283083
vt 0.589866 0.280167
vt 0.410134 0.280167
vt 0.576352 0.284624
vt 0.423648 0.284624
vt 0.572831 0.289915
vt 0.427169 0.289915
vt 0.573307 0.303342
vt 0.426693 0.303342
vt 0.572447 0.295716
vt 0.427553 0.295716
vt 0.529647 0.428636
vt 0.500000 0.428636
vt 0.470353 0.428636
vt 0.584616 0.428636
vt 0.415384 0.428636
vt 0.622301 0.417889
vt 0.377699 0.417889
vt 0.666214 0.388954
vt 0.333786 0.388954
vt 0.701481 0.344467
vt 0.298519 0.344467
vt 0.712163 0.315527
vt 0.287837 0.315527
vt 0.704305 0.260225
vt 0.295695 0.260225
vt 0.672947 0.224880
vt 0.327053 0.224880
vt 0.640497 0.198841
vt 0.359503 0.198841
vt 0.603553 0.023452
vt 0.625128 0.029461
vt 0.635753 0.082198
vt 0.598617 0.056841
vt 0.364247 0.082198
vt 0.374872 0.029461
vt 0.396447 0.023452
vt 0.401383 0.056841
vt 0.546781 0.009442
vt 0.556354 0.040906
vt 0.453219 0.009442
vt 0.443646 0.040906
vt 0.500000 0.033223
vt 0.527159 0.049514
vt 0.472841 0.049514
vt 0.537222 0.060794
vt 0.462778 0.060794
vt 0.558499 0.065137
vt 0.441501 0.065137
vt 0.588127 0.085177
vt 0.411873 0.085177
vt 0.607239 0.113940
vt 0.392761 0.113940
vt 0.612663 0.133675
vt 0.605467 0.151503
vt 0.394533 0.151503
vt 0.387337 0.133675
vt 0.600708 0.162985
vt 0.399292 0.162985
vt 0.922374 0.064228
vt 0.859647 0.117994
vt 0.823287 0.101559
vt 0.861342 0.027230
vt 0.176713 0.101559
vt 0.140353 0.117994
vt 0.077626 0.064228
vt 0.138658 0.027230
vt 0.765863 0.087001
vt 0.774604 0.010837
vt 0.234137 0.087001
vt 0.225396 0.010837
vt 0.661952 0.087561
vt 0.647010 0.028716
vt 0.338048 0.087561
vt 0.352990 0.028716
vt 0.743592 0.198572
vt 0.766410 0.233065
vt 0.256408 0.198572
vt 0.233590 0.233065
vt 0.987633 0.154243
vt 0.889478 0.177602
vt 0.110522 0.177602
vt 0.012367 0.154243
vt 0.899807 0.420886
vt 0.844317 0.347370
vt 0.881169 0.309153
vt 0.958963 0.357385
vt 0.118831 0.309153
vt 0.155683 0.347370
vt 0.100193 0.420886
vt 0.041037 0.357385
vt 0.903302 0.261367
vt 0.999860 0.253531
vt 0.096698 0.261367
vt 0.000140 0.253531
vt 0.724763 0.340212
vt 0.744725 0.304629
vt 0.766113 0.319494
vt 0.255275 0.304629
vt 0.275237 0.340212
vt 0.233887 0.319494
vt 0.793427 0.280495
vt 0.826663 0.297810
vt 0.206573 0.280495
vt 0.173337 0.297810
vt 0.823620 0.254612
vt 0.855331 0.267956
vt 0.176380 0.254612
vt 0.144669 0.267956
vt 0.835860 0.225225
vt 0.868309 0.233525
vt 0.164140 0.225225
vt 0.131691 0.233525
vt 0.813499 0.190705
vt 0.851288 0.181145
vt 0.148712 0.181145
vt 0.186501 0.190705
vt 0.772263 0.374010
vt 0.227737 0.374010
vt 0.744519 0.390057
vt 0.255481 0.390057
vt 0.824765 0.470987
vt 0.175235 0.470987
vt 0.792141 0.464714
vt 0.742181 0.461543
vt 0.726855 0.432574
vt 0.273145 0.432574
vt 0.257819 0.461543
vt 0.207859 0.464714
vt 0.795638 0.489991
vt 0.204362 0.489991
vt 0.786137 0.227788
vt 0.213863 0.227788
vt 0.802950 0.203415
vt 0.197050 0.203415
vt 0.769334 0.128771
vt 0.691484 0.146686
vt 0.230666 0.128771
vt 0.308516 0.146686
vt 0.780113 0.169386
vt 0.219887 0.169386
vt 0.803789 0.171181
vt 0.830917 0.139518
vt 0.169083 0.139518
vt 0.196211 0.171181
vt 0.574628 0.959188
vt 0.464516 0.959188
vt 0.477326 0.891852
vt 0.545439 0.884582
vt 0.272900 0.891852
vt 0.285710 0.959188
vt 0.175598 0.959188
vt 0.204787 0.884582
vt 0.605134 0.846978
vt 0.715894 0.897069
vt 0.145092 0.846978
vt 0.034332 0.897069
vt 0.605360 0.784410
vt 0.683874 0.757011
vt 0.144866 0.784410
vt 0.066352 0.757011
vt 0.574835 0.744212
vt 0.617867 0.719156
vt 0.175391 0.744212
vt 0.132359 0.719156
vt 0.534996 0.712528
vt 0.568728 0.682132
vt 0.215230 0.712528
vt 0.181498 0.682132
vt 0.483006 0.686791
vt 0.508539 0.641024
vt 0.267220 0.686791
vt 0.241687 0.641024
vt 0.513415 0.736977
vt 0.478880 0.719593
vt 0.271346 0.719593
vt 0.236811 0.736977
vt 0.541117 0.760754
vt 0.209109 0.760754
vt 0.557599 0.789442
vt 0.192627 0.789442
vt 0.553841 0.821849
vt 0.196385 0.821849
vt 0.524671 0.842380
vt 0.225555 0.842380
vt 0.485193 0.845321
vt 0.265033 0.845321
vt 0.786150 0.181127
vt 0.770208 0.191225
vt 0.213850 0.181127
vt 0.229792 0.191225
vt 0.408153 0.587507
vt 0.409610 0.674022
vt 0.342073 0.587507
vt 0.340616 0.674022
vt 0.400301 0.910556
vt 0.414155 0.878318
vt 0.336071 0.878318
vt 0.349925 0.910556
vt 0.443630 0.713731
vt 0.306596 0.713731
vt 0.429725 0.728622
vt 0.392812 0.710774
vt 0.357414 0.710774
vt 0.320501 0.728622
vt 0.422979 0.754609
vt 0.432640 0.746527
vt 0.327247 0.754609
vt 0.317586 0.746527
vt 0.427719 0.796173
vt 0.391578 0.815187
vt 0.358648 0.815187
vt 0.322507 0.796173
vt 0.448277 0.830976
vt 0.301949 0.830976
vt 0.797710 0.195652
vt 0.802580 0.199758
vt 0.197420 0.199758
vt 0.202290 0.195652
vt 0.789609 0.184671
vt 0.210391 0.184671
vt 0.466042 0.804091
vt 0.490498 0.816075
vt 0.284184 0.804091
vt 0.259728 0.816075
vt 0.448042 0.783921
vt 0.302184 0.783921
vt 0.438745 0.764960
vt 0.311481 0.764960
vt 0.445216 0.756351
vt 0.305010 0.756351
vt 0.449819 0.743458
vt 0.300407 0.743458
vt 0.456307 0.732687
vt 0.293919 0.732687
vt 0.475471 0.740871
vt 0.274755 0.740871
vt 0.514211 0.817769
vt 0.236015 0.817769
vt 0.527961 0.808598
vt 0.222265 0.808598
vt 0.530079 0.790754
vt 0.220147 0.790754
vt 0.518620 0.772385
vt 0.231606 0.772385
vt 0.498668 0.755033
vt 0.251558 0.755033
vt 0.468029 0.756171
vt 0.459660 0.770459
vt 0.282197 0.756171
vt 0.290566 0.770459
vt 0.487167 0.769899
vt 0.477354 0.785393
vt 0.263059 0.769899
vt 0.272872 0.785393
vt 0.504617 0.782999
vt 0.496545 0.797122
vt 0.245609 0.782999
vt 0.253681 0.797122
vt 0.516137 0.792591
vt 0.513713 0.804019
vt 0.234089 0.792591
vt 0.236513 0.804019
vt 0.574269 0.607668
vt 0.613510 0.655816
vt 0.175957 0.607668
vt 0.136716 0.655816
vt 0.644031 0.693270
vt 0.106195 0.693270
vt 0.668163 0.712097
vt 0.082063 0.712097
vt 0.727131 0.698475
vt 0.676584 0.686010
vt 0.023095 0.698475
vt 0.073642 0.686010
vt 0.729804 0.624370
vt 0.667013 0.640198
vt 0.020422 0.624370
vt 0.083213 0.640198
vt 0.721292 0.572934
vt 0.648152 0.594596
vt 0.028934 0.572934
vt 0.102074 0.594596
vt 0.630034 0.557583
vt 0.717709 0.538143
vt 0.032517 0.538143
vt 0.120192 0.557583
vt 0.526877 0.539235
vt 0.223349 0.539235
s 1
usemtl Suzanne
f 55/15/53 9/16/7 11/17/9 53/18/51
f 12/19/10 10/20/8 56/21/54 54/22/52
f 53/18/51 11/17/9 13/23/11 51/24/49
f 14/25/12 12/19/10 54/22/52 52/26/50
f 11/17/9 17/27/15 15/28/13 13/23/11
f 16/29/14 18/30/16 12/19/10 14/25/12
f 9/16/7 19/31/17 17/27/15 11/17/9
f 18/30/16 20/32/18 10/20/8 12/19/10
f 19/31/17 21/33/19 23/34/21 17/27/15
f 24/35/22 22/36/20 20/32/18 18/30/16
f 17/27/15 23/34/21 25/37/23 15/28/13
f 26/38/24 24/35/22 18/30/16 16/29/14
f 23/34/21 29/39/27 27/40/25 25/37/23
f 28/41/26 30/42/28 24/35/22 26/38/24
f 21/33/19 31/43/29 29/39/27 23/34/21
f 30/42/28 32/44/30 22/36/20 24/35/22
f 31/43/29 33/45/31 35/46/33 29/39/27
f 36/47/34 34/48/32 32/44/30 30/42/28
f 29/39/27 35/46/33 37/49/35 27/40/25
f 38/50/36 36/47/34 30/42/28 28/41/26
f 35/46/33 41/51/39 39/52/37 37/49/35
f 40/53/38 42/54/40 36/47/34 38/50/36
f 33/45/31 43/55/41 41/51/39 35/46/33
f 42/54/40 44/56/42 34/48/32 36/47/34
f 43/55/41 45/57/43 47/58/45 41/51/39
f 48/59/46 46/60/44 44/56/42 42/54/40
f 41/51/39 47/58/45 49/61/47 39/52/37
f 50/62/48 48/59/46 42/54/40 40/53/38
f 47/58/45 53/18/51 51/24/49 49/61/47
f 52/26/50 54/22/52 48/59/46 50/62/48
f 45/57/43 55/15/53 53/18/51 47/58/45
f 54/22/52 56/21/54 46/60/44 48/59/46
f 55/15/53 45/57/43 59/63/57 57/64/55
f 60/65/58 46/60/44 56/21/54 58/66/56
f 45/57/43 43/55/41 61/67/59 59/63/57
f 62/68/60 44/56/42 46/60/44 60/65/58
f 43/55/41 33/45/31 63/69/61 61/67/59
f 64/70/62 34/48/32 44/56/42 62/68/60
f 33/45/31 31/43/29 65/71/63 63/69/61
f 66/72/64 32/44/30 34/48/32 64/70/62
f 31/43/29 21/33/19 67/73/65 65/71/63
f 68/74/66 22/36/20 32/44/30 66/72/64
f 21/33/19 19/31/17 71/75/69 67/73/65
f 72/76/70 20/32/18 22/36/20 68/74/66
f 19/31/17 9/16/7 73/77/71 71/75/69
f 74/78/72 10/20/8 20/32/18 72/76/70
f 9/16/7 55/15/53 57/64/55 73/77/71
f 58/66/56 56/21/54 10/20/8 74/78/72
f 69/79/67 73/77/71 57/64/55
f 58/66/56 74/78/72 70/80/68
f 71/75/69 73/77/71 69/79/67
f 70/80/68 74/78/72 72/76/70
f 69/79/67 67/73/65 71/75/69
f 72/76/70 68/74/66 70/80/68
f 69/79/67 65/71/63 67/73/65
f 68/74/66 66/72/64 70/80/68
f 69/79/67 63/69/61 65/71/63
f 66/72/64 64/70/62 70/80/68
f 69/79/67 61/67/59 63/69/61
f 64/70/62 62/68/60 70/80/68
f 69/79/67 59/63/57 61/67/59
f 62/68/60 60/65/58 70/80/68
f 69/79/67 57/64/55 59/63/57
f 60/65/58 58/66/56 70/80/68
f 97/81/95 182/82/180 184/83/182 99/84/97
f 184/83/182 183/85/181 98/86/96 99/84/97
f 95/87/93 180/88/178 182/82/180 97/81/95
f 183/85/181 181/89/179 96/90/94 98/86/96
f 93/91/91 178/92/176 180/88/178 95/87/93
f 181/89/179 179/93/177 94/94/92 96/90/94
f 91/95/89 176/96/174 178/92/176 93/91/91
f 179/93/177 177/97/175 92/98/90 94/94/92
f 89/99/87 174/100/172 176/96/174 91/95/89
f 177/97/175 175/101/173 90/102/88 92/98/90
f 87/103/85 100/104/98 154/105/152 172/106/170
f 155/107/153 101/108/99 88/109/86 173/110/171
f 100/104/98 102/111/100 156/112/154 154/105/152
f 157/113/155 103/114/101 101/108/99 155/107/153
f 102/111/100 104/115/102 158/116/156 156/112/154
f 159/117/157 105/118/103 103/114/101 157/113/155
f 104/115/102 106/119/104 160/120/158 158/116/156
f 161/121/159 107/122/105 105/118/103 159/117/157
f 106/119/104 108/123/106 162/124/160 160/120/158
f 163/125/161 109/126/107 107/122/105 161/121/159
f 108/123/106 110/127/108 164/128/162 162/124/160
f 165/129/163 111/130/109 109/126/107 163/125/161
f 110/127/108 112/131/110 166/132/164 164/128/162
f 167/133/165 113/134/111 111/130/109 165/129/163
f 112/131/110 114/135/112 168/136/166 166/132/164
f 169/137/167 115/138/113 113/134/111 167/133/165
f 114/135/112 116/139/114 170/140/168 168/136/166
f 171/141/169 117/142/115 115/138/113 169/137/167
f 116/139/114 75/143/73 76/144/74 170/140/168
f 76/144/74 75/143/73 117/142/115 171/141/169
f 118/145/116 136/146/134 168/136/166 170/140/168
f 169/137/167 137/147/135 119/148/117 171/141/169
f 136/146/134 187/149/185 166/132/164 168/136/166
f 167/133/165 188/150/186 137/147/135 169/137/167
f 134/151/132 164/128/162 166/132/164 187/149/185
f 167/133/165 165/129/163 135/152/133 188/150/186
f 132/153/130 162/124/160 164/128/162 134/151/132
f 165/129/163 163/125/161 133/154/131 135/152/133
f 130/155/128 160/120/158 162/124/160 132/153/130
f 163/125/161 161/121/159 131/156/129 133/154/131
f 128/157/126 158/116/156 160/120/158 130/155/128
f 161/121/159 159/117/157 129/158/127 131/156/129
f 126/159/124 156/112/154 158/116/156 128/157/126
f 159/117/157 157/113/155 127/160/125 129/158/127
f 124/161/122 154/105/152 156/112/154 126/159/124
f 157/113/155 155/107/153 125/162/123 127/160/125
f 122/163/120 172/106/170 154/105/152 124/161/122
f 155/107/153 173/110/171 123/164/121 125/162/123
f 122/163/120 189/165/187 185/166/183 172/106/170
f 185/166/183 190/167/188 123/164/121 173/110/171
f 118/145/116 170/140/168 76/144/74 120/168/118
f 76/144/74 171/141/169 119/148/117 121/169/119
f 120/168/118 76/144/74 186/170/184 191/171/189
f 186/170/184 76/144/74 121/169/119 192/172/190
f 185/166/183 189/165/187 191/171/189 186/170/184
f 192/172/190 190/167/188 185/166/183 186/170/184
f 143/173/141 145/174/143 184/83/182 182/82/180
f 184/83/182 145/174/143 144/175/142 183/85/181
f 141/176/139 143/173/141 182/82/180 180/88/178
f 183/85/181 144/175/142 142/177/140 181/89/179
f 139/178/137 141/176/139 180/88/178 178/92/176
f 181/89/179 142/177/140 140/179/138 179/93/177
f 174/100/172 195/180/193 193/181/191 176/96/174
f 194/182/192 196/183/194 175/101/173 177/97/175
f 139/178/137 178/92/176 176/96/174 193/181/191
f 177/97/175 179/93/177 140/179/138 194/182/192
f 152/184/150 198/185/196 197/186/195 195/180/193
f 197/186/195 198/185/196 153/187/151 196/183/194
f 193/181/191 195/180/193 197/186/195 77/188/75
f 197/186/195 196/183/194 194/182/192 77/188/75
f 138/189/136 139/178/137 193/181/191 77/188/75
f 194/182/192 140/179/138 138/189/136 77/188/75
f 150/190/148 201/191/199 199/192/197 152/184/150
f 200/193/198 202/194/200 151/195/149 153/187/151
f 148/196/146 203/197/201 201/191/199 150/190/148
f 202/194/200 204/198/202 149/199/147 151/195/149
f 147/200/145 205/201/203 203/197/201 148/196/146
f 204/198/202 206/202/204 147/200/145 149/199/147
f 146/203/144 79/204/77 205/201/203 147/200/145
f 206/202/204 79/204/77 146/203/144 147/200/145
f 198/185/196 152/184/150 199/192/197 78/205/76
f 200/193/198 153/187/151 198/185/196 78/205/76
f 78/205/76 199/192/197 214/206/212 216/207/214
f 215/208/213 200/193/198 78/205/76 216/207/214
f 79/204/77 207/209/205 208/210/206 205/201/203
f 209/211/207 207/209/205 79/204/77 206/202/204
f 205/201/203 208/210/206 210/212/208 203/197/201
f 211/213/209 209/211/207 206/202/204 204/198/202
f 203/197/201 210/212/208 212/214/210 201/191/199
f 213/215/211 211/213/209 204/198/202 202/194/200
f 201/191/199 212/214/210 214/206/212 199/192/197
f 215/208/213 213/215/211 202/194/200 200/193/198
f 207/209/205 212/214/210 210/212/208 208/210/206
f 211/213/209 213/215/211 207/209/205 209/211/207
f 207/209/205 216/207/214 214/206/212 212/214/210
f 215/208/213 216/207/214 207/209/205 213/215/211
f 147/200/145 148/196/146 172/106/170 185/166/183
f 173/110/171 149/199/147 147/200/145 185/166/183
f 148/196/146 150/190/148 219/216/217 172/106/170
f 220/217/218 151/195/149 149/199/147 173/110/171
f 150/190/148 152/184/150 221/218/219 219/216/217
f 222/219/220 153/187/151 151/195/149 220/217/218
f 152/184/150 195/180/193 174/100/172 221/218/219
f 175/101/173 196/183/194 153/187/151 222/219/220
f 89/99/87 217/220/215 221/218/219 174/100/172
f 222/219/220 218/221/216 90/102/88 175/101/173
f 217/220/215 223/222/221 219/216/217 221/218/219
f 220/217/218 224/223/222 218/221/216 222/219/220
f 87/103/85 172/106/170 219/216/217 223/222/221
f 220/217/218 173/110/171 88/109/86 224/223/222
f 139/178/137 138/189/136 80/224/78 230/225/228
f 80/224/78 138/189/136 140/179/138 231/226/229
f 141/176/139 139/178/137 230/225/228 228/227/226
f 231/226/229 140/179/138 142/177/140 229/228/227
f 143/173/141 141/176/139 228/227/226 226/229/224
f 229/228/227 142/177/140 144/175/142 227/230/225
f 145/174/143 143/173/141 226/229/224 225/231/223
f 227/230/225 144/175/142 145/174/143 225/231/223
f 225/231/223 226/229/224 237/232/235 239/233/237
f 238/234/236 227/230/225 225/231/223 239/233/237
f 226/229/224 228/227/226 235/235/233 237/232/235
f 236/236/234 229/228/227 227/230/225 238/234/236
f 228/227/226 230/225/228 233/237/231 235/235/233
f 234/238/232 231/226/229 229/228/227 236/236/234
f 230/225/228 80/224/78 232/239/230 233/237/231
f 232/239/230 80/224/78 231/226/229 234/238/232
f 232/239/230 239/233/237 237/232/235 233/237/231
f 238/234/236 239/233/237 232/239/230 234/238/232
f 233/237/231 237/232/235 235/235/233
f 236/236/234 238/234/236 234/238/232
f 191/171/189 189/165/187 242/240/240 240/241/238
f 243/242/241 190/167/188 192/172/190 241/243/239
f 120/168/118 191/171/189 240/241/238 262/244/260
f 241/243/239 192/172/190 121/169/119 263/245/261
f 118/145/116 120/168/118 262/244/260 264/246/262
f 263/245/261 121/169/119 119/148/117 265/247/263
f 189/165/187 122/163/120 260/248/258 242/240/240
f 261/249/259 123/164/121 190/167/188 243/242/241
f 122/163/120 124/161/122 258/250/256 260/248/258
f 259/251/257 125/162/123 123/164/121 261/249/259
f 124/161/122 126/159/124 256/252/254 258/250/256
f 257/253/255 127/160/125 125/162/123 259/251/257
f 126/159/124 128/157/126 254/254/252 256/252/254
f 255/255/253 129/158/127 127/160/125 257/253/255
f 128/157/126 130/155/128 252/256/250 254/254/252
f 253/257/251 131/156/129 129/158/127 255/255/253
f 130/155/128 132/153/130 250/258/248 252/256/250
f 251/259/249 133/154/131 131/156/129 253/257/251
f 132/153/130 134/151/132 248/260/246 250/258/248
f 249/261/247 135/152/133 133/154/131 251/259/249
f 134/151/132 187/149/185 244/262/242 248/260/246
f 245/263/243 188/150/186 135/152/133 249/261/247
f 187/149/185 136/146/134 246/264/244 244/262/242
f 247/265/245 137/147/135 188/150/186 245/263/243
f 136/146/134 118/145/116 264/246/262 246/264/244
f 265/247/263 119/148/117 137/147/135 247/265/245
f 246/264/244 264/246/262 266/266/264 284/267/282
f 267/268/265 265/247/263 247/265/245 285/269/283
f 244/262/242 246/264/244 284/267/282 286/270/284
f 285/269/283 247/265/245 245/263/243 287/271/285
f 248/260/246 244/262/242 286/270/284 282/272/280
f 287/271/285 245/263/243 249/261/247 283/273/281
f 250/258/248 248/260/246 282/272/280 280/274/278
f 283/273/281 249/261/247 251/259/249 281/275/279
f 252/256/250 250/258/248 280/274/278 278/276/276
f 281/275/279 251/259/249 253/257/251 279/277/277
f 254/254/252 252/256/250 278/276/276 276/278/274
f 279/277/277 253/257/251 255/255/253 277/279/275
f 256/252/254 254/254/252 276/278/274 274/280/272
f 277/279/275 255/255/253 257/253/255 275/281/273
f 258/250/256 256/252/254 274/280/272 272/282/270
f 275/281/273 257/253/255 259/251/257 273/283/271
f 260/248/258 258/250/256 272/282/270 270/284/268
f 273/283/271 259/251/257 261/249/259 271/285/269
f 242/240/240 260/248/258 270/284/268 288/286/286
f 271/285/269 261/249/259 243/242/241 289/287/287
f 264/246/262 262/244/260 268/288/266 266/266/264
f 269/289/267 263/245/261 265/247/263 267/268/265
f 262/244/260 240/241/238 290/290/288 268/288/266
f 291/291/289 241/243/239 263/245/261 269/289/267
f 240/241/238 242/240/240 288/286/286 290/290/288
f 289/287/287 243/242/241 241/243/239 291/291/289
f 75/143/73 116/139/114 292/292/290 81/293/79
f 293/294/291 117/142/115 75/143/73 81/293/79
f 116/139/114 114/135/112 294/295/292 292/292/290
f 295/296/293 115/138/113 117/142/115 293/294/291
f 114/135/112 112/131/110 296/297/294 294/295/292
f 297/298/295 113/134/111 115/138/113 295/296/293
f 112/131/110 110/127/108 298/299/296 296/297/294
f 299/300/297 111/130/109 113/134/111 297/298/295
f 110/127/108 108/123/106 300/301/298 298/299/296
f 301/302/299 109/126/107 111/130/109 299/300/297
f 108/123/106 106/119/104 302/303/300 300/301/298
f 303/304/301 107/122/105 109/126/107 301/302/299
f 106/119/104 104/115/102 304/305/302 302/303/300
f 305/306/303 105/118/103 107/122/105 303/304/301
f 104/115/102 102/111/100 306/307/304 304/305/302
f 307/308/305 103/114/101 105/118/103 305/306/303
f 102/111/100 100/104/98 308/309/306 306/307/304
f 309/310/307 101/108/99 103/114/101 307/308/305
f 316/311/314 317/312/315 336/313/334 346/314/344
f 337/315/335 317/316/315 316/317/314 347/318/345
f 315/319/313 316/311/314 346/314/344 344/320/342
f 347/318/345 316/317/314 315/321/313 345/322/343
f 314/323/312 315/319/313 344/320/342 348/324/346
f 345/322/343 315/321/313 314/323/312 349/325/347
f 97/81/95 99/84/97 314/323/312 348/324/346
f 314/323/312 99/84/97 98/86/96 349/325/347
f 95/87/93 97/81/95 348/324/346 342/326/340
f 349/325/347 98/86/96 96/90/94 343/327/341
f 93/91/91 95/87/93 342/326/340 338/328/336
f 343/327/341 96/90/94 94/94/92 339/329/337
f 91/95/89 93/91/91 338/328/336 340/330/338
f 339/329/337 94/94/92 92/98/90 341/331/339
f 338/328/336 344/320/342 346/314/344 340/330/338
f 347/318/345 345/322/343 339/329/337 341/331/339
f 338/328/336 342/326/340 348/324/346 344/320/342
f 349/325/347 343/327/341 339/329/337 345/322/343
f 334/332/332 340/330/338 346/314/344 336/313/334
f 347/318/345 341/331/339 335/333/333 337/315/335
f 89/99/87 91/95/89 340/330/338 334/332/332
f 341/331/339 92/98/90 90/102/88 335/333/333
f 217/220/215 350/334/348 352/335/350 223/222/221
f 353/336/351 351/337/349 218/221/216 224/223/222
f 89/99/87 334/332/332 350/334/348 217/220/215
f 351/337/349 335/333/333 90/102/88 218/221/216
f 87/103/85 223/222/221 352/335/350 354/338/352
f 353/336/351 224/223/222 88/109/86 355/339/353
f 87/103/85 354/338/352 308/309/306 100/104/98
f 309/310/307 355/339/353 88/109/86 101/108/99
f 85/340/83 332/341/330 360/342/358 312/343/310
f 361/344/359 333/345/331 85/346/83 312/347/310
f 312/343/310 360/342/358 358/348/356 86/349/84
f 359/350/357 361/344/359 312/347/310 86/351/84
f 86/349/84 358/348/356 356/352/354 313/353/311
f 357/354/355 359/350/357 86/351/84 313/355/311
f 313/353/311 356/352/354 336/313/334 317/312/315
f 337/315/335 357/354/355 313/355/311 317/316/315
f 334/332/332 336/313/334 356/352/354 350/334/348
f 357/354/355 337/315/335 335/333/333 351/337/349
f 304/305/302 306/307/304 326/356/324 318/357/316
f 327/358/325 307/308/305 305/306/303 319/359/317
f 84/360/82 324/361/322 332/341/330 85/340/83
f 333/345/331 325/362/323 84/363/82 85/346/83
f 310/364/308 366/365/364 364/366/362 311/367/309
f 365/368/363 367/369/365 310/370/308 311/371/309
f 311/367/309 364/366/362 362/372/360 83/373/81
f 363/374/361 365/368/363 311/371/309 83/375/81
f 83/373/81 362/372/360 324/361/322 84/360/82
f 325/362/323 363/374/361 83/375/81 84/363/82
f 300/376/298 302/303/300 370/377/368 372/378/370
f 371/379/369 303/304/301 301/380/299 373/381/371
f 372/378/370 370/377/368 376/382/374 374/383/372
f 377/384/375 371/379/369 373/381/371 375/385/373
f 374/383/372 376/382/374 378/386/376 380/387/378
f 379/388/377 377/384/375 375/385/373 381/389/379
f 380/387/378 378/386/376 384/390/382 382/391/380
f 385/392/383 379/388/377 381/389/379 383/393/381
f 322/394/320 386/395/384 382/391/380 384/390/382
f 383/393/381 387/396/385 323/397/321 385/392/383
f 324/361/322 362/372/360 382/391/380 386/395/384
f 383/393/381 363/374/361 325/362/323 387/396/385
f 362/372/360 364/366/362 380/387/378 382/391/380
f 381/389/379 365/368/363 363/374/361 383/393/381
f 364/366/362 366/365/364 374/383/372 380/387/378
f 375/385/373 367/369/365 365/368/363 381/389/379
f 366/365/364 368/398/366 372/378/370 374/383/372
f 373/381/371 369/399/367 367/369/365 375/385/373
f 298/400/296 300/376/298 372/378/370 368/398/366
f 373/381/371 301/380/299 299/401/297 369/399/367
f 82/402/80 368/398/366 366/365/364 310/364/308
f 367/369/365 369/399/367 82/403/80 310/370/308
f 292/404/290 294/405/292 296/406/294 298/400/296
f 297/407/295 295/408/293 293/409/291 299/401/297
f 292/404/290 298/400/296 368/398/366 82/402/80
f 369/399/367 299/401/297 293/409/291 82/403/80
f 81/410/79 292/404/290 82/402/80
f 82/403/80 293/409/291 81/411/79
f 302/303/300 304/305/302 318/357/316 370/377/368
f 319/359/317 305/306/303 303/304/301 371/379/369
f 318/357/316 320/412/318 376/382/374 370/377/368
f 377/384/375 321/413/319 319/359/317 371/379/369
f 320/412/318 390/414/388 378/386/376 376/382/374
f 379/388/377 391/415/389 321/413/319 377/384/375
f 322/394/320 384/390/382 378/386/376 390/414/388
f 379/388/377 385/392/383 323/397/321 391/415/389
f 356/352/354 358/348/356 394/416/392 392/417/390
f 395/418/393 359/350/357 357/354/355 393/419/391
f 326/356/324 392/417/390 394/416/392 328/420/326
f 395/418/393 393/419/391 327/358/325 329/421/327
f 306/307/304 308/309/306 392/417/390 326/356/324
f 393/419/391 309/310/307 307/308/305 327/358/325
f 308/309/306 352/335/350 350/334/348 392/417/390
f 351/337/349 353/336/351 309/310/307 393/419/391
f 350/334/348 356/352/354 392/417/390
f 393/419/391 357/354/355 351/337/349
f 308/309/306 354/338/352 352/335/350
f 353/336/351 355/339/353 309/310/307
f 322/394/320 330/422/328 388/423/386 386/395/384
f 389/424/387 331/425/329 323/397/321 387/396/385
f 324/361/322 386/395/384 388/423/386 332/341/330
f 389/424/387 387/396/385 325/362/323 333/345/331
f 328/420/326 394/416/392 388/423/386 330/422/328
f 389/424/387 395/418/393 329/421/327 331/425/329
f 358/348/356 360/342/358 388/423/386 394/416/392
f 389/424/387 361/344/359 359/350/357 395/418/393
f 332/341/330 388/423/386 360/342/358
f 361/344/359 389/424/387 333/345/331
f 408/426/406 396/427/394 422/428/420 410/429/408
f 423/430/421 397/431/395 409/432/407 411/433/409
f 408/426/406 410/429/408 412/434/410 406/435/404
f 413/436/411 411/433/409 409/432/407 407/437/405
f 406/435/404 412/434/410 414/438/412 404/439/402
f 415/440/413 413/436/411 407/437/405 405/441/403
f 404/439/402 414/438/412 416/442/414 402/443/400
f 417/444/415 415/440/413 405/441/403 403/445/401
f 402/443/400 416/442/414 418/446/416 400/447/398
f 419/448/417 417/444/415 403/445/401 401/449/399
f 400/447/398 418/446/416 420/450/418 398/451/396
f 421/452/419 419/448/417 401/449/399 399/453/397
f 418/446/416 428/454/426 426/455/424 420/450/418
f 427/456/425 429/457/427 419/448/417 421/452/419
f 416/442/414 430/458/428 428/454/426 418/446/416
f 429/457/427 431/459/429 417/444/415 419/448/417
f 414/438/412 432/460/430 430/458/428 416/442/414
f 431/459/429 433/461/431 415/440/413 417/444/415
f 412/434/410 434/462/432 432/460/430 414/438/412
f 433/461/431 435/463/433 413/436/411 415/440/413
f 410/429/408 436/464/434 434/462/432 412/434/410
f 435/463/433 437/465/435 411/433/409 413/436/411
f 410/429/408 422/428/420 424/466/422 436/464/434
f 425/467/423 423/430/421 411/433/409 437/465/435
f 326/356/324 328/420/326 452/468/450 450/469/448
f 453/470/451 329/421/327 327/358/325 451/471/449
f 328/472/326 398/451/396 420/450/418 452/473/450
f 421/452/419 399/453/397 329/474/327 453/475/451
f 318/357/316 326/356/324 450/469/448 320/412/318
f 451/471/449 327/358/325 319/359/317 321/413/319
f 390/476/388 438/477/436 422/428/420 396/427/394
f 423/430/421 439/478/437 391/479/389 397/431/395
f 420/450/418 426/455/424 448/480/446 452/473/450
f 449/481/447 427/456/425 421/452/419 453/475/451
f 446/482/444 454/483/452 452/473/450 448/480/446
f 453/475/451 455/484/453 447/485/445 449/481/447
f 442/486/440 454/483/452 446/482/444 444/487/442
f 447/485/445 455/484/453 443/488/441 445/489/443
f 440/490/438 456/491/454 454/483/452 442/486/440
f 455/484/453 457/492/455 441/493/439 443/488/441
f 438/477/436 456/491/454 440/490/438 458/494/456
f 441/493/439 457/492/455 439/478/437 459/495/457
f 422/428/420 438/477/436 458/494/456 424/466/422
f 459/495/457 439/478/437 423/430/421 425/467/423
f 320/412/318 456/496/454 438/497/436 390/414/388
f 439/498/437 457/499/455 321/413/319 391/415/389
f 320/412/318 450/469/448 454/500/452 456/496/454
f 455/501/453 451/471/449 321/413/319 457/499/455
f 450/469/448 452/468/450 454/500/452
f 455/501/453 453/470/451 451/471/449
f 424/466/422 458/494/456 460/502/458 484/503/482
f 461/504/459 459/495/457 425/467/423 485/505/483
f 458/494/456 440/490/438 470/506/468 460/502/458
f 471/507/469 441/493/439 459/495/457 461/504/459
f 440/490/438 442/486/440 468/508/466 470/506/468
f 469/509/467 443/488/441 441/493/439 471/507/469
f 442/486/440 444/487/442 466/510/464 468/508/466
f 467/511/465 445/489/443 443/488/441 469/509/467
f 444/487/442 446/482/444 464/512/462 466/510/464
f 465/513/463 447/485/445 445/489/443 467/511/465
f 446/482/444 448/480/446 462/514/460 464/512/462
f 463/515/461 449/481/447 447/485/445 465/513/463
f 448/480/446 426/455/424 482/516/480 462/514/460
f 483/517/481 427/456/425 449/481/447 463/515/461
f 436/464/434 424/466/422 484/503/482 472/518/470
f 485/505/483 425/467/423 437/465/435 473/519/471
f 434/462/432 436/464/434 472/518/470 474/520/472
f 473/519/471 437/465/435 435/463/433 475/521/473
f 432/460/430 434/462/432 474/520/472 476/522/474
f 475/521/473 435/463/433 433/461/431 477/523/475
f 430/458/428 432/460/430 476/522/474 478/524/476
f 477/523/475 433/461/431 431/459/429 479/525/477
f 428/454/426 430/458/428 478/524/476 480/526/478
f 479/525/477 431/459/429 429/457/427 481/527/479
f 426/455/424 428/454/426 480/526/478 482/516/480
f 481/527/479 429/457/427 427/456/425 483/517/481
f 466/510/464 464/512/462 488/528/486 486/529/484
f 489/530/487 465/513/463 467/511/465 487/531/485
f 486/529/484 488/528/486 490/532/488 492/533/490
f 491/534/489 489/530/487 487/531/485 493/535/491
f 492/533/490 490/532/488 496/536/494 494/537/492
f 497/538/495 491/534/489 493/535/491 495/539/493
f 494/537/492 496/536/494 498/540/496 500/541/498
f 499/542/497 497/538/495 495/539/493 501/543/499
f 472/518/470 484/503/482 494/537/492 500/541/498
f 495/539/493 485/505/483 473/519/471 501/543/499
f 460/502/458 492/533/490 494/537/492 484/503/482
f 495/539/493 493/535/491 461/504/459 485/505/483
f 460/502/458 470/506/468 486/529/484 492/533/490
f 487/531/485 471/507/469 461/504/459 493/535/491
f 466/510/464 486/529/484 470/506/468 468/508/466
f 471/507/469 487/531/485 467/511/465 469/509/467
f 462/514/460 482/516/480 488/528/486 464/512/462
f 489/530/487 483/517/481 463/515/461 465/513/463
f 480/526/478 490/532/488 488/528/486 482/516/480
f 489/530/487 491/534/489 481/527/479 483/517/481
f 478/524/476 496/536/494 490/532/488 480/526/478
f 491/534/489 497/538/495 479/525/477 481/527/479
f 476/522/474 498/540/496 496/536/494 478/524/476
f 497/538/495 499/542/497 477/523/475 479/525/477
f 474/520/472 500/541/498 498/540/496 476/522/474
f 499/542/497 501/543/499 475/521/473 477/523/475
f 472/518/470 500/541/498 474/520/472
f 475/521/473 501/543/499 473/519/471
f 400/447/398 398/451/396 512/544/510 510/545/508
f 513/546/511 399/453/397 401/449/399 511/547/509
f 402/443/400 400/447/398 510/545/508 508/548/506
f 511/547/509 401/449/399 403/445/401 509/549/507
f 404/439/402 402/443/400 508/548/506 506/550/504
f 509/549/507 403/445/401 405/441/403 507/551/505
f 406/552/404 404/439/402 506/550/504 504/553/502
f 507/551/505 405/441/403 407/554/405 505/555/503
f 408/556/406 406/552/404 504/553/502 502/557/500
f 505/555/503 407/554/405 409/558/407 503/559/501
f 396/560/394 408/556/406 502/557/500 514/561/512
f 503/559/501 409/558/407 397/562/395 515/563/513
f 502/557/500 510/545/508 512/544/510 514/561/512
f 513/546/511 511/547/509 503/559/501 515/563/513
f 502/557/500 504/553/502 508/548/506 510/545/508
f 509/549/507 505/555/503 503/559/501 511/547/509
f 504/553/502 506/550/504 508/548/506
f 509/549/507 507/551/505 505/555/503
f 322/564/320 390/565/388 396/560/394 514/561/512
f 397/562/395 391/566/389 323/567/321 515/563/513
f 322/564/320 514/561/512 512/544/510 330/568/328
f 513/546/511 515/563/513 323/567/321 331/569/329
f 328/472/326 330/568/328 512/544/510 398/451/396
f 513/546/511 331/569/329 329/474/327 399/453/397
o Plane
v -2.500000 -1.500000 4.000000
v 5.500000 -1.500000 4.000000
v -2.500000 -1.500000 -4.000000
v 5.500000 -1.500000 -4.000000
vn -0.0000 1.0000 -0.0000
vt 0.000000 0.000000
vt 1.000000 0.000000
vt 1.000000 1.000000
vt 0.000000 1.000000
s 0
f 516/570/514 517/571/514 519/572/514 518/573/514
